<svg xmlns="http://www.w3.org/2000/svg" width="32" height="32"><g fill="#9e9e9e"><path d="M28.6382 31.5c-.734 0-1.4616-.3067-1.9965-.8413L15.9995 20.0192 5.332 30.6532c-.5134.5462-1.224.8468-2.002.8468-.734 0-1.4616-.3067-1.9964-.8413C.796 30.1212.5 29.4067.5 28.6467c0-.7599.296-1.4744.8337-2.0119l10.6416-10.6387L1.3337 5.3573C.796 4.8198.5 4.1053.5 3.3453c0-.7599.296-1.4744.8337-2.0119C1.8713.796 2.5859.5 3.346.5c.76 0 1.4747.296 2.0122.8334L16 11.9724l10.6417-10.639C27.1793.796 27.894.5 28.654.5c.76 0 1.4747.296 2.0123.8334.5376.5375.8337 1.252.8337 2.012 0 .7599-.296 1.4744-.8337 2.0119l-10.642 10.6393 10.611 10.6387c.537.537.8331 1.2515.8331 2.0114 0 .7572-.2939 1.4692-.8277 2.006-.5135.5465-1.2243.8473-2.0025.8473Z"/><path d="M28.6382 31c.6003 0 1.2007-.2211 1.643-.695.9163-.916.9163-2.4006 0-3.3166L19.3175 15.9961 30.3128 5.0037c.9163-.916.9163-2.4006 0-3.3167A2.3388 2.3388 0 0 0 28.654 1c-.6003 0-1.2006.229-1.6587.687L16 12.6794 5.0047 1.687A2.3388 2.3388 0 0 0 3.346 1c-.6003 0-1.2007.229-1.6588.687-.9163.916-.9163 2.4007 0 3.3167L12.6825 15.996 1.6872 26.9884c-.9163.916-.9163 2.4007 0 3.3167.4423.4422 1.0427.6949 1.643.6949.6003 0 1.2006-.2211 1.643-.695L16 19.3128l10.9953 10.9924c.4423.4422 1.0426.6949 1.643.6949m0 1c-.8657 0-1.7222-.36-2.35-.9877L15.999 20.7257 5.6907 31.0017c-.6085.644-1.446.9983-2.3605.9983-.8656 0-1.7222-.36-2.35-.9877C.348 30.3803 0 29.5403 0 28.6467c0-.8935.3481-1.7336.9802-2.3655L11.268 15.9961.98 5.7109C.3482 5.0789 0 4.2389 0 3.3454 0 2.4518.3481 1.6117.9802.9798 1.6122.348 2.4524 0 3.346 0c.8936 0 1.7337.348 2.3657.9798L16 11.2654 26.2882.9798C26.9202.348 27.7605 0 28.654 0c.8936 0 1.7338.348 2.3658.9798.6321.632.9802 1.472.9802 2.3656 0 .8935-.3481 1.7336-.9802 2.3655L20.731 15.997l10.2583 10.2851c.6311.631.9792 1.471.9792 2.3645 0 .8878-.3436 1.7229-.968 2.3534-.6086.6449-1.4468.9999-2.3622.9999Z"/></g></svg>