<svg xmlns="http://www.w3.org/2000/svg" width="200" height="200" viewBox="0 0 200 200"><g transform="translate(615 -622)"><rect width="200" height="200" transform="translate(-615 622)" fill="none"/><g transform="translate(-582 640)"><path d="M108.716,58.845c0-1.043.146-1.829.183-2.762a23.357,23.357,0,0,0-4.316-14.632,1.225,1.225,0,0,0-1.134-.567H82.378c-3.512,0-7.042-.2-10.553-.219a12.346,12.346,0,0,0-6.054,1.3A7.828,7.828,0,0,0,62.99,44.6a.786.786,0,0,0,0,1.1h0a39.888,39.888,0,0,0,3.073,2.762c1.427,1.116,2.963,2.1,4.554,3.2l-.512,1.189L64.179,66.618a.951.951,0,0,1-1.043.732q-8.231-.165-16.461-.183c-.786,0-1.043-.293-1.244-1.006A61.729,61.729,0,0,0,41.28,55.37a41.939,41.939,0,0,0-8.45-10.736c-.768-.713-1.536-1.408-2.25-2.177a1.024,1.024,0,0,1-.146-.86q2.689-8.779,5.4-17.449a4.213,4.213,0,0,1,.219-.768L31,21.46l-1.738,2.689a6.969,6.969,0,0,0-4.006-.951,4.591,4.591,0,0,0-4.426,4.627,4.316,4.316,0,0,0,1.829,4.042L25.423,33.7a.64.64,0,0,1,.293.841h0c-.4.878-.713,1.829-1.043,2.707a4.3,4.3,0,0,1-3,2.817,61.911,61.911,0,0,0-6.219,2.067A16.772,16.772,0,0,0,6.73,50.3a4.262,4.262,0,0,0,5.633,1.408,25.607,25.607,0,0,1,6.511-2.25,17.193,17.193,0,0,1,18.693,9.566,27.71,27.71,0,0,1,2.579,9.145c.146,1.079.439,2.14.64,3.219,0,.457.366.476.732.476H66.941a1.262,1.262,0,0,0,1.207-.64c2.231-3.329,4.481-6.712,6.749-10a32.045,32.045,0,0,1,6.164-7.316,16.809,16.809,0,0,1,21.619-.457c1.829,1.445,3.548,3.146,5.322,4.755Z" transform="translate(5.579 17.791)" fill="#b22c26"/><path d="M47.255,25.565c.311,2.195.585,4.115.841,6.036.311,2.3.622,4.627.969,6.932,0,.622-.11.786-.64.988-3.329,1.317-6.676,2.6-9.968,4.024A14.376,14.376,0,0,0,33.628,47,6.017,6.017,0,0,0,32.11,52.25c.933,6.2,2.451,12.273,3.932,18.29.238.915.457,1.829.732,2.744a.7.7,0,0,0,.494.512,45.068,45.068,0,0,0,4.975.622c1.939.091,2.835-.9,2.487-2.817-.476-2.872-1.116-5.707-1.664-8.56-.64-3.274-1.207-6.548-1.829-9.8-.128-.7.165-.915.732-1.116,7.188-2.615,14.358-5.249,21.546-7.846a1.28,1.28,0,0,0,.915-1.207,26.392,26.392,0,0,0-.2-8.048c-.9-5.926-1.829-11.852-2.744-17.778a24.674,24.674,0,0,0-.969-3.8,3.9,3.9,0,0,0-3.823-2.744,14.468,14.468,0,0,0-11.834,4.28,109.408,109.408,0,0,0-8.212,9.456,1.244,1.244,0,0,1-1.628.512c-2.231-.841-4.463-1.664-6.712-2.433a26.082,26.082,0,0,0-4.042-1.152,2.963,2.963,0,0,0-3.841,2.835c-.348,2.981-.53,2.469,1.829,3.475,3.658,1.61,7.517,3.073,11.322,4.39a7.133,7.133,0,0,0,8.194-2.012,42.307,42.307,0,0,1,3.182-3.091A18.125,18.125,0,0,1,47.255,25.565Z" transform="translate(16.761 8.803)" fill="#b22c26"/><path d="M65.107,13.84H52.8a16.041,16.041,0,0,0-1.829.11,3.658,3.658,0,0,0-3.658,3.914Q47,21.1,47,24.339q0,6.475.165,12.913c0,1.244.293,2.451.4,3.658A1.39,1.39,0,0,0,48.9,42.354h0c1.664.238,3.311.622,4.975.7,3.658.219,7.316.4,10.828.384a116.085,116.085,0,0,0,15.345-.768c2.286-.311,2.414-.274,2.542-2.506.256-4.335.4-8.688.494-13.023v-8.3a13.8,13.8,0,0,0-.11-1.518,3.347,3.347,0,0,0-3.658-3.365c-1.573-.091-3.128-.091-4.719-.091C71.436,13.84,68.271,13.84,65.107,13.84Z" transform="translate(38.964 11.474)" fill="#b22c26"/><path d="M37.337,53.428c0,9.017-6.8,16.205-15.144,16.132A15.821,15.821,0,0,1,6.28,53.9,15.419,15.419,0,0,1,21.443,38.43C28.942,38.5,37.337,43.46,37.337,53.428Zm-7.407,5.1a9.84,9.84,0,0,0-.988-10.645,8.651,8.651,0,0,0-9.456-2.634,8.706,8.706,0,0,0-6.767,7.023c-.8,4.737,2.451,10.5,9.73,10.535a8.834,8.834,0,0,0,7.444-4.3Z" transform="translate(5.206 31.859)" fill="#b22c26"/><path d="M60.054,38.393a15.089,15.089,0,0,1,16,14.906c.146,8.1-5.487,16-14.541,16.278A15.729,15.729,0,0,1,45.056,54.6v-.439C44.672,45.014,52.774,38.667,60.054,38.393Zm-.274,6.438c-4.883,0-8.523,4.353-8.4,9.675A8.852,8.852,0,0,0,61,63.084a9.145,9.145,0,0,0,8.688-9.365h0C69.565,47.647,64.37,44.776,59.78,44.831Z" transform="translate(37.341 31.805)" fill="#b22c26"/><path d="M47.507,8.322C47.635,3.128,42.24,0,38.783,0a8.419,8.419,0,0,0,.457,16.827,8.6,8.6,0,0,0,8.267-8.5Z" transform="translate(25.525 0)" fill="#b22c26"/><path d="M3.256,71.658V81.9h11.98v2.872H3.256v10.7H17.778v3H0V68.75H17.778v2.908Z" transform="translate(0 56.995)" fill="#222"/><path d="M17.931,83.95,11.31,73.25h3.457l5.121,8.377,5.158-8.377H28.5L21.79,83.858l6.694,10.883H25.028l-5.14-8.45-5.121,8.45H11.31Z" transform="translate(9.376 60.725)" fill="#222"/><path d="M22.89,73.467h3.128V75a14.944,14.944,0,0,1,3.2-1.482,10.975,10.975,0,0,1,3.256-.512A6.4,6.4,0,0,1,38.2,75.644a15.126,15.126,0,0,1,1.829,8.377,19.369,19.369,0,0,1-.915,6.53,6.6,6.6,0,0,1-2.963,3.658,10.974,10.974,0,0,1-5.487,1.134,22.718,22.718,0,0,1-4.591-.457v9.566H22.908ZM35.4,90.532a11.358,11.358,0,0,0,1.39-6.365,12.4,12.4,0,0,0-1.207-6.328A4.024,4.024,0,0,0,31.925,75.9a9.877,9.877,0,0,0-2.634.4,19.3,19.3,0,0,0-2.433.878l-.786.439V92.032a35.722,35.722,0,0,0,4.627.457,5.286,5.286,0,0,0,4.7-1.957Z" transform="translate(18.976 60.508)" fill="#222"/><path d="M35.06,73.457h3.128v2.908A20.7,20.7,0,0,1,45.924,73v3.256A24.8,24.8,0,0,0,42.266,77.3a26.4,26.4,0,0,0-3.054,1.3l-1.061.567V94.948H35.06Z" transform="translate(29.065 60.518)" fill="#222"/><path d="M44.33,92.745a12.986,12.986,0,0,1-2.012-8.029A14.76,14.76,0,0,1,44.477,75.9a7.993,7.993,0,0,1,6.749-2.89,7.792,7.792,0,0,1,6.31,2.469,11.4,11.4,0,0,1,2.1,7.554l-.183,2.433h-13.9a11.907,11.907,0,0,0,.567,4.152,3.786,3.786,0,0,0,1.939,2.177,9.035,9.035,0,0,0,3.823.658H54.7a15.157,15.157,0,0,0,2.926-.183l1.225-.128v2.524a55.034,55.034,0,0,1-7.755.7,8.212,8.212,0,0,1-6.767-2.615ZM56.4,82.924a9.621,9.621,0,0,0-1.225-5.487,4.7,4.7,0,0,0-4.024-1.646,5.139,5.139,0,0,0-4.3,1.829,8.724,8.724,0,0,0-1.427,5.487Z" transform="translate(35.049 60.508)" fill="#222"/><path d="M55.409,94.651l-1.28-.2.165-2.8a54.17,54.17,0,0,0,7.316.732,6.9,6.9,0,0,0,3.768-.823,3.036,3.036,0,0,0,1.244-2.689,2.963,2.963,0,0,0-.6-2.012,3.365,3.365,0,0,0-1.573-.969,18.728,18.728,0,0,0-2.67-.567l-1.061-.165a19.771,19.771,0,0,1-3.969-1.024,4.755,4.755,0,0,1-2.14-1.7,5.341,5.341,0,0,1-.732-3.018,5.578,5.578,0,0,1,2.085-4.92A9.932,9.932,0,0,1,61.81,73.05a34.386,34.386,0,0,1,6.127.549l1.189.22v2.725a51.724,51.724,0,0,0-7.133-.677,6.932,6.932,0,0,0-3.658.768,2.652,2.652,0,0,0-1.207,2.4,2.506,2.506,0,0,0,.6,1.829,3.2,3.2,0,0,0,1.536.9,21.948,21.948,0,0,0,2.689.585l1.061.2a19.443,19.443,0,0,1,4.042,1.1,4.518,4.518,0,0,1,2.14,1.829,6.255,6.255,0,0,1,.7,3.2,6.054,6.054,0,0,1-2.012,5.066,9.913,9.913,0,0,1-6.145,1.628,39.325,39.325,0,0,1-6.328-.713Z" transform="translate(44.638 60.541)" fill="#222"/><path d="M66.125,94.651l-1.262-.2.165-2.8a54.172,54.172,0,0,0,7.316.732,7.005,7.005,0,0,0,3.786-.823,3.036,3.036,0,0,0,1.244-2.689,2.981,2.981,0,0,0-.622-2.012A3.311,3.311,0,0,0,75.2,85.89a18.965,18.965,0,0,0-2.689-.567l-1.061-.165a20.119,20.119,0,0,1-3.969-1.024,4.756,4.756,0,0,1-2.14-1.7,5.487,5.487,0,0,1-.713-3.018,5.487,5.487,0,0,1,2.067-4.92,9.932,9.932,0,0,1,5.853-1.445,34.237,34.237,0,0,1,6.127.549l1.189.219v2.725a51.734,51.734,0,0,0-7.133-.677A6.932,6.932,0,0,0,69,76.635a2.6,2.6,0,0,0-1.189,2.4,2.414,2.414,0,0,0,.585,1.829,3.2,3.2,0,0,0,1.536.9,21.942,21.942,0,0,0,2.689.585l1.061.2a19.605,19.605,0,0,1,4.06,1.1,4.39,4.39,0,0,1,2.122,1.829,7.444,7.444,0,0,1-1.3,8.267,9.913,9.913,0,0,1-6.145,1.628A39.344,39.344,0,0,1,66.125,94.651Z" transform="translate(53.547 60.541)" fill="#222"/></g></g></svg>