<svg xmlns="http://www.w3.org/2000/svg" width="200" height="200" viewBox="0 0 200 200"><g transform="translate(2075 -253)"><rect width="200" height="200" transform="translate(-2075 253)" fill="none"/><g transform="translate(-2058.995 267.005)"><g transform="translate(-0.005 -0.005)"><path d="M1.855,101.08l-1.536-.2L.652,98.1a74.173,74.173,0,0,0,8.848.8q6.331,0,6.331-6.035a5.257,5.257,0,0,0-.574-2.592,4.109,4.109,0,0,0-1.981-1.555A18.936,18.936,0,0,0,9.26,87.66,24.822,24.822,0,0,1,3.706,85.9,6.5,6.5,0,0,1,.893,83.328,8.885,8.885,0,0,1,0,79.034Q0,71,9.537,71a62.939,62.939,0,0,1,8.922.87l-.3,2.832a83.3,83.3,0,0,0-8.423-.74q-6.4,0-6.4,4.905A5.368,5.368,0,0,0,3.947,81.7a4.517,4.517,0,0,0,2.129,1.573,32.207,32.207,0,0,0,4.739,1.351A20.363,20.363,0,0,1,15.7,86.272a5.757,5.757,0,0,1,2.536,2.388,8.219,8.219,0,0,1,.814,3.98q0,9.256-9.441,9.256a52.91,52.91,0,0,1-7.756-.815Z" transform="translate(0.005 60.437)" fill="#222"/><path d="M15.584,96.824a5.553,5.553,0,0,1-2.073-3.332,27.3,27.3,0,0,1-.5-6.442V75.74h3.2V86.995a27.1,27.1,0,0,0,.333,4.905,3.85,3.85,0,0,0,1.24,2.332,4.572,4.572,0,0,0,2.777.7,13.088,13.088,0,0,0,6-1.61V75.74h3.11V97.4h-3.2V95.88a15.271,15.271,0,0,1-3.258,1.5,11.848,11.848,0,0,1-3.425.444,7.4,7.4,0,0,1-4.2-1Z" transform="translate(11.063 64.471)" fill="#222"/><path d="M25.32,75.954h3.11v1.555a15.865,15.865,0,0,1,3.221-1.481,10.588,10.588,0,0,1,3.313-.518,6.534,6.534,0,0,1,5.794,2.666,15.4,15.4,0,0,1,1.851,8.46,18.937,18.937,0,0,1-.944,6.608,6.7,6.7,0,0,1-3,3.7,11.347,11.347,0,0,1-5.553,1.148,21.936,21.936,0,0,1-4.665-.481v9.663H25.32ZM37.963,93.243a11.4,11.4,0,0,0,1.407-6.46A12.421,12.421,0,0,0,38.148,80.4a4.035,4.035,0,0,0-3.7-1.981,9.9,9.9,0,0,0-2.666.426,14.476,14.476,0,0,0-2.462.889l-.814.426V94.742a33.447,33.447,0,0,0,4.7.481,5.424,5.424,0,0,0,4.739-1.981Z" transform="translate(21.559 64.257)" fill="#222"/><path d="M39,95.466a12.958,12.958,0,0,1-1.981-8.108,15.012,15.012,0,0,1,2.166-8.941,8.015,8.015,0,0,1,6.831-2.906,7.886,7.886,0,0,1,6.386,2.5A11.5,11.5,0,0,1,54.5,85.693l-.185,2.462H40.207a12.513,12.513,0,0,0,.518,4.165A3.832,3.832,0,0,0,42.706,94.5a8.552,8.552,0,0,0,3.869.666h2.851a26.885,26.885,0,0,0,2.943-.2l1.24-.111V97.41a55.94,55.94,0,0,1-7.867.685A8.256,8.256,0,0,1,39,95.466ZM51.3,85.526a9.811,9.811,0,0,0-1.24-5.553,4.757,4.757,0,0,0-4.072-1.666,5.257,5.257,0,0,0-4.35,1.851,8.867,8.867,0,0,0-1.444,5.553Z" transform="translate(31.477 64.255)" fill="#222"/><path d="M49.14,75.961h3.147V78.9a21.658,21.658,0,0,1,7.83-3.425v3.295a27.77,27.77,0,0,0-3.7,1.055,30.485,30.485,0,0,0-3.091,1.333l-1.074.555v15.9H49.14Z" transform="translate(41.832 64.25)" fill="#222"/><path d="M57.926,96.374a7,7,0,0,1-1.536-4.85,6.183,6.183,0,0,1,1.573-4.646,8.145,8.145,0,0,1,4.979-1.851l6.7-.648V82.528q0-4.109-3.5-4.109a79.716,79.716,0,0,0-8.4.555l-.2-2.517a40.724,40.724,0,0,1,8.33-.963,7.164,7.164,0,0,1,5.276,1.666,7.4,7.4,0,0,1,1.647,5.313V93.579c0,1.074.907,1.7,2.48,1.851l-.13,2.555a6.886,6.886,0,0,1-5.091-1.722,18.1,18.1,0,0,1-7.682,1.722,5.812,5.812,0,0,1-4.443-1.61Zm10.736-2.036.981-.352V86.841l-6.331.611a4.017,4.017,0,0,0-2.777,1.129,3.961,3.961,0,0,0-.851,2.684c0,2.666,1.092,4,3.258,4a17.308,17.308,0,0,0,5.7-.926Z" transform="translate(47.985 64.236)" fill="#222"/><path d="M68.7,75.944h3.147V77.5a16.013,16.013,0,0,1,3.239-1.481,9.959,9.959,0,0,1,3.295-.5,6.5,6.5,0,0,1,5.794,2.758,15.234,15.234,0,0,1,1.851,8.46,19.085,19.085,0,0,1-.944,6.608,6.571,6.571,0,0,1-2.98,3.7,11.107,11.107,0,0,1-5.553,1.148,21.752,21.752,0,0,1-4.646-.463v9.663H68.68ZM81.342,93.233a11.4,11.4,0,0,0,1.407-6.46,12.421,12.421,0,0,0-1.222-6.386,4.054,4.054,0,0,0-3.7-1.981,10.144,10.144,0,0,0-2.666.426,14.272,14.272,0,0,0-2.443.889l-.814.426V94.732a32.908,32.908,0,0,0,4.683.481,5.553,5.553,0,0,0,4.757-1.981Z" transform="translate(58.463 64.267)" fill="#222"/><path d="M80.85,75.943h3.165V77.5a15.4,15.4,0,0,1,3.221-1.481,10.07,10.07,0,0,1,3.313-.5,6.479,6.479,0,0,1,5.775,2.758,15.383,15.383,0,0,1,1.851,8.46,19.085,19.085,0,0,1-.944,6.608,6.608,6.608,0,0,1-3,3.7,11.107,11.107,0,0,1-5.553,1.148,21.863,21.863,0,0,1-4.646-.463v9.663H80.85ZM93.493,93.233a11.4,11.4,0,0,0,1.407-6.46,12.421,12.421,0,0,0-1.222-6.386,4.054,4.054,0,0,0-3.7-1.981,10.162,10.162,0,0,0-2.684.426,14.809,14.809,0,0,0-2.443.889l-.814.426V94.732a33.448,33.448,0,0,0,4.7.481,5.424,5.424,0,0,0,4.739-1.981Z" transform="translate(68.821 64.268)" fill="#222"/><g transform="translate(32.477)"><path d="M112.02,56.666c4.535-1.388,7.552-6.183,7.552-11.662a12.958,12.958,0,0,0-2.758-8.237V26.2a2.592,2.592,0,1,0-4.017-2.129,2.3,2.3,0,0,0,1.24,2.184V34.36a10.07,10.07,0,0,0-2.166-1.037,44.7,44.7,0,0,0-86.391-.278c-4.646,1.24-7.941,6.164-7.941,11.792s3.443,10.551,7.941,11.792A44.426,44.426,0,0,0,44.14,82.285V85.3a38.982,38.982,0,0,0-4.387,1.388c-.426-.278-.7-.555-1.092-.833a4.276,4.276,0,0,0-2.2-.7A3.924,3.924,0,0,0,33,87.006a4.258,4.258,0,0,0-.537,3.147,1.185,1.185,0,0,0,.407.963,25.8,25.8,0,0,0-8.645,19.344,1.388,1.388,0,0,0,1.388,1.37h86.706a1.388,1.388,0,0,0,1.37-1.388A26.286,26.286,0,0,0,105.06,91.1a8.828,8.828,0,0,0,.407-.963,4.276,4.276,0,0,0-.537-3.147,3.924,3.924,0,0,0-3.462-1.851,4.165,4.165,0,0,0-2.184.685c-.426.278-.7.555-1.111.833a39.577,39.577,0,0,0-4.387-1.5V82.137A44.649,44.649,0,0,0,112.02,56.666Zm.777-20.029a9.811,9.811,0,0,1,4.146,8.219,9.552,9.552,0,0,1-4.146,8.237,41.189,41.189,0,0,0,.833-8.237,53.088,53.088,0,0,0-.833-8.219ZM24.685,53.5a9.681,9.681,0,0,1-4.443-8.645,9.663,9.663,0,0,1,4.535-8.626,43.39,43.39,0,0,0-.833,8.626,58.642,58.642,0,0,0,.814,8.626ZM59.116,3.984v7a1.388,1.388,0,1,0,2.758,0v-7.4a34.153,34.153,0,0,1,5.553-.555v9.644a1.388,1.388,0,1,0,2.777,0V2.892a34.153,34.153,0,0,1,5.553.555v7.534a1.37,1.37,0,0,0,1.37,1.388,1.444,1.444,0,0,0,1.388-1.388v-7a42.205,42.205,0,0,1,32.431,39.632h-6.682c-.537-6.035-2.332-11.921-7.256-15.2C90.7,24.179,81.236,21.976,68.89,21.976s-21.806,2.2-28.118,6.442C36,31.713,34.2,37.674,33.515,43.616H26.8A42.057,42.057,0,0,1,59.116,3.984ZM101.062,56.37c-.259,1.092-.537,2.332-.814,3.462v.13a45.775,45.775,0,0,1-2.48,5.905c-8.9,16.16-30.987,22.472-46.611,12.051a.13.13,0,0,1-.13-.13L49.509,76.7a2.814,2.814,0,0,1-.685-.555,3.961,3.961,0,0,0-.963-.685,31.932,31.932,0,0,1-8.219-10.422,40.983,40.983,0,0,1-2.61-6.868v-.13c-2.073-6.294-1.388-12.2.13-18.511a15.364,15.364,0,0,1,2.2-5.887c2.184-3.295,6.294-5.072,9.866-6.312a54.182,54.182,0,0,1,12.476-2.462h3.462c1.37-.111,2.758-.167,4.146-.148a73.3,73.3,0,0,1,9.866.555h.555a42.816,42.816,0,0,1,9.459,2.2.389.389,0,0,1,.259.13A25.064,25.064,0,0,1,95.9,30.751a5.553,5.553,0,0,1,1.388,1.24,11.107,11.107,0,0,1,3.036,5.035h0c.13.278.13.407.278.685s.259.963.407,1.388a1.857,1.857,0,0,1,.13.814,41.058,41.058,0,0,1,0,16.456ZM26.87,109.219A23.194,23.194,0,0,1,34.7,93.336a26.267,26.267,0,0,1,6.294,7.4,19.714,19.714,0,0,0-3.017,8.478Zm13.994,0a13.939,13.939,0,0,1,1.592-5.831,26.748,26.748,0,0,1,2.129,5.831Zm6.59,0c-1.24-6.571-6.59-15.2-11.792-18.641a1.37,1.37,0,0,1-.426-1.851h0a1.444,1.444,0,0,1,1.111-.685c.259,0,.537,0,.685.278,5.905,3.832,11.792,13.569,12.958,20.843H47.454Zm45.389,0a25.785,25.785,0,0,1,2.073-5.757,14.235,14.235,0,0,1,1.647,5.757Zm17.808,0H99.414a18.511,18.511,0,0,0-2.869-8.5,26.267,26.267,0,0,1,6.294-7.4,22.509,22.509,0,0,1,7.812,15.9Zm-10.274-20.9c.278-.148.407-.278.685-.278a1.2,1.2,0,0,1,1.092.685,1.37,1.37,0,0,1-.463,1.981h0c-5.146,3.388-10.366,12.014-11.736,18.511H87.2C88.585,101.814,94.287,92.022,100.377,88.32Zm-4.942.407a40.336,40.336,0,0,0-10.829,20.362H53.137A41.317,41.317,0,0,0,42.308,88.727c.7-.259,1.388-.407,2.073-.685.963,5.35,12.754,8.219,24.546,8.219S92.436,93.355,93.4,87.894A5.442,5.442,0,0,0,95.434,88.727ZM46.9,87.487V84.044A45.482,45.482,0,0,0,68.834,89.8,44.426,44.426,0,0,0,90.77,84.044v3.443c0,2.462-8.5,6.164-21.936,6.164S46.9,89.949,46.9,87.505ZM68.7,87.006A42.187,42.187,0,0,1,26.61,46.281h6.442c0,1.24-.13,2.61-.13,3.832a35.745,35.745,0,0,0,35.634,35.56h0a35.745,35.745,0,0,0,35.652-35.689q.026-1.853-.13-3.7h6.442A41.687,41.687,0,0,1,68.7,87.006Z" transform="translate(-17.54 0.005)" fill="#b22b26"/><path d="M56.309,56.4H53.551a4.572,4.572,0,0,0-8.774,0H42.018a1.407,1.407,0,0,0-1.388,1.388,1.388,1.388,0,0,0,1.388,1.37h2.758a4.572,4.572,0,0,0,8.774,0h2.758a1.37,1.37,0,0,0,1.388-1.37A1.388,1.388,0,0,0,56.309,56.4ZM49.053,59.7A1.851,1.851,0,1,1,50.9,57.844,1.962,1.962,0,0,1,49.053,59.7Z" transform="translate(2.112 45.215)" fill="#b22b26"/><path d="M60.126,32.549a7.682,7.682,0,0,1-1.37,2.888,3.943,3.943,0,0,1-3.85.963,5.368,5.368,0,0,1-3.147-3.369c1.37-.685,2.592-2.073,2.184-3.443a1.222,1.222,0,0,0-1.24-.963c-1.222-.13-1.5,1.092-2.314,1.647s-1.388-.555-2.073-.814a.87.87,0,0,0-1.074.629v.185a3.462,3.462,0,0,0,1.851,2.758,5.442,5.442,0,0,1-2.888,3.147c-1.851.7-5.35.148-5.35-2.462a.852.852,0,0,0-1.629-.278c-1.518,3.98,2.314,6.72,6.016,5.775a8.534,8.534,0,0,0,5.091-3.7,10.088,10.088,0,0,0,5.553,3.554c3.573.407,8.089-2.888,6.312-6.72C61.643,31.882,60.4,31.882,60.126,32.549Z" transform="translate(0.628 24.363)" fill="#b22b26"/><path d="M37.583,22.636a2.11,2.11,0,0,0-1.5.537,2.629,2.629,0,0,0,.167,3.7,3.555,3.555,0,0,0,.648.426,2.832,2.832,0,0,0,3.7-1.259,2.5,2.5,0,0,0-.629-3,3.165,3.165,0,0,0-2.388-.407Z" transform="translate(-2.338 19.207)" fill="#b22b26"/><path d="M55.563,24.15a.981.981,0,0,0-.833.426,2.129,2.129,0,0,0-2.073,1.148,2.98,2.98,0,0,0,.148,3.017,3.147,3.147,0,0,0,2.869.963A2.832,2.832,0,0,0,57.9,26.371a2.758,2.758,0,0,0-.833-1.5A1.851,1.851,0,0,0,55.563,24.15Z" transform="translate(12.058 20.562)" fill="#b22b26"/><path d="M41.838,37.042a29.618,29.618,0,0,0-7.127,4.517,48.591,48.591,0,0,1-3.147-4.387c2.592-.833,5.2-1.24,7.812-1.851a.615.615,0,0,0-.148-1.222h0a33.969,33.969,0,0,0-9.256.537h0a6.868,6.868,0,0,1-2.462,1.24v-.019a25.73,25.73,0,0,0,2.073,3.85,24.194,24.194,0,0,0,3.147,4.239A48.629,48.629,0,0,0,27.788,51.5c-.537,1.092.7,2.073,1.518,1.092,1.851-2.073,3.462-4.517,5.35-6.442.13,0,.13.13.259.13a7.4,7.4,0,0,1,2.277-3.017,63.419,63.419,0,0,1,5.553-5.22C43.226,37.708,42.671,36.764,41.838,37.042Z" transform="translate(-9.055 28.94)" fill="#b22b26"/><path d="M76.514,42.779a24.435,24.435,0,0,0-6.035-5.757.555.555,0,0,1-.148-.407h-.537a9.644,9.644,0,0,1-1.981-.278h0a47.185,47.185,0,0,0-12.495-.963c-.944.13-.944,1.24-.13,1.37,3.7.7,7.552.963,11.255,1.647-1.388,1.518-2.758,2.888-4.258,4.258A24.212,24.212,0,0,0,54.1,37.855c-.814-.278-1.518.537-.814,1.222,1.851,1.851,4.239,3.165,6.294,4.831a6.682,6.682,0,0,1,3.295,3.165l.407.407c2.888,3.147,5.22,6.571,7.83,9.737A.8.8,0,0,0,72.2,57.5a.777.777,0,0,0,.278-1.092,58.661,58.661,0,0,0-8.367-11.292c1.5-2.073,3.443-3.98,5.072-6.035a38.874,38.874,0,0,1,6.164,4.387.65.65,0,1,0,1.185-.537A.407.407,0,0,0,76.514,42.779Z" transform="translate(12.635 30.052)" fill="#b22b26"/><path d="M69.854,10.771c-2.888-1.647-6.59.13-9.478.963a29.488,29.488,0,0,0-7.127,3.554A9.256,9.256,0,0,1,55.1,16.805c.278.13.426.13.7.278a31.469,31.469,0,0,1,4.924-2.777,60.68,60.68,0,0,1,6.442-2.073c-2.184,1.851-4.387,3.85-6.442,5.905a10.329,10.329,0,0,1,2.2.537c2.073-1.851,4.239-3.7,6.294-5.553A37.225,37.225,0,0,1,68,22.71a6.386,6.386,0,0,1,1.444,2.277,31.691,31.691,0,0,0,1.24-6.442C71.076,16.38,72.724,12.4,69.854,10.771Z" transform="translate(12.853 8.6)" fill="#b22b26"/><path d="M29.578,12.912c2.2,2.073,4.535,4.146,6.849,6.183a2.388,2.388,0,0,0,.555.407,16.915,16.915,0,0,1,1.851-.814c-2.2-2.351-4.665-4.535-7.145-6.72A29.025,29.025,0,0,1,38.075,14a27.637,27.637,0,0,1,5.368,2.906,4.332,4.332,0,0,1,2.073-2.073,23.6,23.6,0,0,0-7.127-3.554c-2.758-.833-6.571-2.61-9.459-.963s-1.222,5.553-.963,8.089a36.245,36.245,0,0,0,1.851,8.5,3.98,3.98,0,0,1,.13-1.24,5.35,5.35,0,0,1,1.111-2.332V23.26a31.839,31.839,0,0,1-1.481-10.348Z" transform="translate(-9.272 8.217)" fill="#b22b26"/><path d="M22.751,43.15c-.685.963.555,1.851,1.37,1.222A104.314,104.314,0,0,1,33.173,37.8c-.407-.833-.963-1.851-1.37-2.61a33.32,33.32,0,0,0-9.052,7.96Z" transform="translate(-13.274 29.959)" fill="#b22b26"/><path d="M28.21,36.6a5.646,5.646,0,0,1,.7,1.37" transform="translate(-8.459 31.159)" fill="#b22b26"/></g></g></g></g></svg>