<svg xmlns="http://www.w3.org/2000/svg" width="200" height="200" viewBox="0 0 200 200"><g transform="translate(1500 -522)"><rect width="200" height="200" transform="translate(-1500 522)" fill="none"/><g transform="translate(-1445.996 538)"><g transform="translate(-0.004 0)"><path d="M5.47,101.128a8.882,8.882,0,0,1-3.438-5.177A34.516,34.516,0,0,1,1.1,86.974a34.669,34.669,0,0,1,.936-8.959,9.054,9.054,0,0,1,3.362-5.1,11.862,11.862,0,0,1,6.991-1.91A41.3,41.3,0,0,1,20.637,72L20.5,74.921a44.963,44.963,0,0,0-7.641-.821,8.92,8.92,0,0,0-5.2,1.261A6.609,6.609,0,0,0,5.26,79.372a38.718,38.718,0,0,0-.63,8.042,32.855,32.855,0,0,0,.592,7.125,6.38,6.38,0,0,0,2.445,3.82,9.684,9.684,0,0,0,5.6,1.318,38.775,38.775,0,0,0,7.278-.8l.134,2.961a40.534,40.534,0,0,1-8.023.936,12.512,12.512,0,0,1-7.182-1.643Z" transform="translate(0.993 64.615)" fill="#222"/><path d="M14.09,70.65h3.3v32.09h-3.3Z" transform="translate(12.831 64.302)" fill="#222"/><path d="M21.927,97.507a5.73,5.73,0,0,1-2.139-3.419,27.468,27.468,0,0,1-.611-6.666V75.75h3.3V87.383a26.245,26.245,0,0,0,.344,5.043,3.916,3.916,0,0,0,1.261,2.407,4.737,4.737,0,0,0,2.884.726,13.2,13.2,0,0,0,6.17-1.662V75.75h3.3V98.118h-3.3V96.551A15.281,15.281,0,0,1,29.777,98.1a12.167,12.167,0,0,1-3.515.458A7.64,7.64,0,0,1,21.927,97.507Z" transform="translate(17.448 68.944)" fill="#222"/><path d="M32.772,102.836,31.53,102.7V70.65H34.8V81.519a15.987,15.987,0,0,1,6.7-1.585,8.022,8.022,0,0,1,4.584,1.146,6.494,6.494,0,0,1,2.445,3.61,23.514,23.514,0,0,1,.783,6.7,20.3,20.3,0,0,1-.974,7.106,6.208,6.208,0,0,1-3.247,3.553,15.549,15.549,0,0,1-6.418,1.051A55.509,55.509,0,0,1,32.772,102.836Zm10.544-3.515A4.508,4.508,0,0,0,45.4,96.571a18.6,18.6,0,0,0,.573-5.234,20,20,0,0,0-.5-4.985,4.489,4.489,0,0,0-1.585-2.6,5.119,5.119,0,0,0-3.114-.8,17.918,17.918,0,0,0-5.941,1.28v15.74c2.1.153,3.515.229,4.221.229a8.519,8.519,0,0,0,4.26-.879Z" transform="translate(28.704 64.302)" fill="#222"/><path d="M82.674,35.692H75.034V25.53H0V81.975A9.914,9.914,0,0,0,9.554,92.251h56.1a9.914,9.914,0,0,0,9.551-10.277V72.653h7.641a8.959,8.959,0,0,0,8.844-8.959h0v-19.1a8.92,8.92,0,0,0-9.016-8.9ZM17.195,83.274c-5.2,0-9.322-5.062-9.322-11.213V34.068h9.322ZM86.4,63.79a3.82,3.82,0,0,1-3.82,3.82H74.938V40.868h7.641a3.82,3.82,0,0,1,3.82,3.82Z" transform="translate(0.004 23.236)" fill="#b02b27"/><path d="M64.527,12.4A42.214,42.214,0,0,0,34.767,0,41.565,41.565,0,0,0,5.14,12.282a3.553,3.553,0,0,0,0,5.043h0a3.706,3.706,0,0,0,5.2,0,34.631,34.631,0,0,1,48.976,0l.153.153a3.706,3.706,0,0,0,5.2,0,3.82,3.82,0,0,0-.134-5.081Z" transform="translate(3.73 0)" fill="#b02b27"/><path d="M28.016,8.47a21.6,21.6,0,0,0-15.281,6.418,3.687,3.687,0,1,0,5.215,5.2,14.364,14.364,0,0,1,20.343-.1v.1a3.438,3.438,0,0,0,2.6,1.051,3.572,3.572,0,0,0,2.6-1.051,3.515,3.515,0,0,0,1.07-2.6,3.667,3.667,0,0,0-1.07-2.6A22.043,22.043,0,0,0,28.016,8.47Z" transform="translate(10.48 7.709)" fill="#b02b27"/><path d="M22.193,17.06a4.6,4.6,0,0,0-4.6,4.623h0a5.062,5.062,0,0,0,1.3,3.3,4.718,4.718,0,0,0,3.3,1.3h0a4.623,4.623,0,0,0,4.6-4.6,4.527,4.527,0,0,0-4.451-4.623Z" transform="translate(16.016 15.527)" fill="#b02b27"/></g></g></g></svg>