<svg xmlns="http://www.w3.org/2000/svg" width="200" height="200" viewBox="0 0 200 200"><g transform="translate(1098 660)"><rect width="200" height="200" transform="translate(-1098 -660)" fill="none"/><g transform="translate(-1058 -642)"><path d="M20.344,62.391A10.516,10.516,0,0,1,23.8,67.869a30.85,30.85,0,0,1,.88,7.777q0,8.877-2.9,12.936a10.257,10.257,0,0,1-8.917,4H1.49V60.251h11.4a11.576,11.576,0,0,1,7.458,2.139Zm.68,13.575a17.754,17.754,0,0,0-2-9.537,6.878,6.878,0,0,0-6.178-3H5.029V89.422h7.857Q21.024,89.442,21.024,75.966Z" transform="translate(1.489 60.189)" fill="#222"/><path d="M16.07,60.05h3.419v4H16.07Zm0,9.357h3.419V92.8H16.07Z" transform="translate(16.059 60.01)" fill="#222"/><path d="M22.544,97.813a6,6,0,0,1-2.139-5.218,7.318,7.318,0,0,1,.34-2.459,4.818,4.818,0,0,1,1.08-1.719,25.455,25.455,0,0,1,2.219-2,2.519,2.519,0,0,1-.96-1.26,4.858,4.858,0,0,1-.34-1.779,4.2,4.2,0,0,1,.28-1.32,23.632,23.632,0,0,1,1.3-2.539q-3.659-1.639-3.659-7.018a7.837,7.837,0,0,1,2.179-6,9.417,9.417,0,0,1,6.558-2,20.733,20.733,0,0,1,4.7.6l6.838-.18v3H36.56a4.758,4.758,0,0,1,1.14,2,9.6,9.6,0,0,1,.38,2.919,7.4,7.4,0,0,1-2.119,6,10.157,10.157,0,0,1-6.7,1.779,11.738,11.738,0,0,1-2.359-.18c-.24.62-.44,1.16-.6,1.639a3.559,3.559,0,0,0-.22,1.22,1.519,1.519,0,0,0,.94,1.579,8.258,8.258,0,0,0,2.939.38h1.8a21.193,21.193,0,0,1,4.9.46,4.938,4.938,0,0,1,2.959,1.8,7.138,7.138,0,0,1,.96,4,6.938,6.938,0,0,1-2.5,6,14,14,0,0,1-8.217,1.859A12.816,12.816,0,0,1,22.544,97.813ZM35.62,95.374a4,4,0,0,0,1.519-3.619,4.258,4.258,0,0,0-.58-2.239,2.639,2.639,0,0,0-1.719-1.04,15.455,15.455,0,0,0-3.459-.28l-4.978-.26a7.677,7.677,0,0,0-2,2,4.359,4.359,0,0,0-.54,2.239,3.8,3.8,0,0,0,1.36,3.339,9.5,9.5,0,0,0,4.958.94A10,10,0,0,0,35.62,95.374Zm-2.2-18.914a7.1,7.1,0,0,0,0-8,5.558,5.558,0,0,0-4-1.18,5.718,5.718,0,0,0-4,1.2,5.318,5.318,0,0,0-1.22,4,5.2,5.2,0,0,0,1.22,4,5.738,5.738,0,0,0,4,1.18,5.638,5.638,0,0,0,4-1.2Z" transform="translate(20.361 64.433)" fill="#222"/><path d="M32.76,60.05h3.419v4H32.76Zm0,9.357h3.419V92.8H32.76Z" transform="translate(32.738 60.01)" fill="#222"/><path d="M42.158,91.44a4.3,4.3,0,0,1-2-2.619,18.214,18.214,0,0,1-.56-5.158V71.347H36.4V68.308h3.2V61.15h3.419v7.158h7.338v3.039H43.1v11.2a31.813,31.813,0,0,0,.18,4,3.179,3.179,0,0,0,.9,2,3.139,3.139,0,0,0,2.239.7l4.119-.4.24,2.919a34.167,34.167,0,0,1-4.938.5,7.058,7.058,0,0,1-3.679-.82Z" transform="translate(36.376 61.109)" fill="#222"/><path d="M46.491,87.028a7.458,7.458,0,0,1-1.679-5.238,6.6,6.6,0,0,1,1.7-5,8.857,8.857,0,0,1,5.378-2l7.318-.7v-2q0-4.558-3.859-4.558a81.453,81.453,0,0,0-9.1.62l-.14-2.619a45.486,45.486,0,0,1,9-1.04,7.817,7.817,0,0,1,5.718,1.8,8,8,0,0,1,1.759,5.738v12c.1,1.16.98,1.859,2.679,2l-.06,2.859a7.4,7.4,0,0,1-5.5-1.879,19.813,19.813,0,0,1-8.3,1.879,6.278,6.278,0,0,1-4.918-1.859Zm11.576-2.2,1.06-.36V76.731l-6.838.66a3.719,3.719,0,0,0-4,4.219c0,2.859,1.18,4.3,3.519,4.3a18.593,18.593,0,0,0,6.258-1.08Z" transform="translate(44.759 64.422)" fill="#222"/><path d="M57.25,59.63h3.5V93.219h-3.5Z" transform="translate(57.212 59.59)" fill="#222"/><path d="M118.2,39.187h-3.679v-7.4a2.419,2.419,0,0,0-2.319-2.5H99.087a2.439,2.439,0,0,0-2.479,2.419h0v7.478H91.969V12.536a2.479,2.479,0,0,0-2.559-2.419H85.971V2.679A2.7,2.7,0,0,0,83.392,0H70.317a2.7,2.7,0,0,0-2.539,2.679v7.438H53.1V2.679A2.639,2.639,0,0,0,50.563,0H37.488a2.679,2.679,0,0,0-2.579,2.679v7.438H31.43a2.459,2.459,0,0,0-2.579,2.359V39.187H24.292v-7.4a2.5,2.5,0,0,0-2.419-2.479H8.757A2.619,2.619,0,0,0,6,31.829v7.378H2.659A2.619,2.619,0,0,0,0,41.706V74.2a2.739,2.739,0,0,0,2.659,2.679H118.2A2.739,2.739,0,0,0,120.88,74.2V41.686A2.639,2.639,0,0,0,118.2,39.187Zm-16.554-4.818h7.837v4.818h-7.837ZM72.836,5.058h8.117v5.058H72.836Zm-32.849,0h8v5.058h-8Zm-6,10.117h53V39.167h-53ZM11.116,34.369h8.1v4.818h-8ZM57.641,71.8H5.078V44.265H57.661Zm58.141,0H62.719V44.265H115.8Z" fill="#b02c26"/></g></g></svg>