<svg xmlns="http://www.w3.org/2000/svg" viewBox="0 0 73.29 90.15"><defs><style>.cls-1{fill:#b22c26;}.cls-2{fill:#222;}</style></defs><title>Asset 5</title><g id="Layer_2" data-name="Layer 2"><g id="Layer_1-2" data-name="Layer 1"><g id="_4" data-name="4"><path class="cls-1" d="M62.49,41.9c0-.57.08-1,.1-1.51a12.77,12.77,0,0,0-2.36-8,.67.67,0,0,0-.62-.31c-3.84,0-7.68,0-11.52,0-1.92,0-3.85-.11-5.77-.12a6.75,6.75,0,0,0-3.31.71,4.28,4.28,0,0,0-1.52,1.44.43.43,0,0,0,0,.6l0,0a21.81,21.81,0,0,0,1.68,1.51c.78.61,1.62,1.15,2.49,1.75l-.28.65-3.24,7.53a.52.52,0,0,1-.57.4q-4.5-.09-9-.1c-.43,0-.57-.16-.68-.55a33.75,33.75,0,0,0-2.27-5.9A22.93,22.93,0,0,0,21,34.13c-.42-.39-.84-.77-1.23-1.19a.56.56,0,0,1-.08-.47q1.47-4.8,2.95-9.54c0-.13.08-.25.12-.42L20,21.46l-.95,1.47a3.81,3.81,0,0,0-2.19-.52,2.51,2.51,0,0,0-2.42,2.53,2.36,2.36,0,0,0,1,2.21l1.51,1a.35.35,0,0,1,.16.46l0,0c-.22.48-.39,1-.57,1.48a2.35,2.35,0,0,1-1.64,1.54,33.85,33.85,0,0,0-3.4,1.13,9.17,9.17,0,0,0-4.77,4.47A2.33,2.33,0,0,0,9.81,38a14,14,0,0,1,3.56-1.23A9.4,9.4,0,0,1,23.59,42,15.15,15.15,0,0,1,25,47c.08.59.24,1.17.35,1.76,0,.25.2.26.4.26H39.65a.69.69,0,0,0,.66-.35C41.53,46.85,42.76,45,44,43.2a17.52,17.52,0,0,1,3.37-4,9.19,9.19,0,0,1,11.82-.25c1,.79,1.94,1.72,2.91,2.6Z"/><path class="cls-1" d="M35,18.79c.17,1.2.32,2.25.46,3.3.17,1.26.34,2.53.53,3.79,0,.34-.06.43-.35.54-1.82.72-3.65,1.42-5.45,2.2a7.86,7.86,0,0,0-2.64,1.89,3.29,3.29,0,0,0-.83,2.87c.51,3.39,1.34,6.71,2.15,10,.13.5.25,1,.4,1.5,0,.11.17.27.27.28a24.64,24.64,0,0,0,2.72.34c1.06.05,1.55-.49,1.36-1.54-.26-1.57-.61-3.12-.91-4.68-.35-1.79-.66-3.58-1-5.36-.07-.38.09-.5.4-.61,3.93-1.43,7.85-2.87,11.78-4.29a.7.7,0,0,0,.5-.66,14.43,14.43,0,0,0-.11-4.4c-.49-3.24-1-6.48-1.5-9.72a13.49,13.49,0,0,0-.53-2.08,2.13,2.13,0,0,0-2.09-1.5A7.91,7.91,0,0,0,33.69,13a59.82,59.82,0,0,0-4.49,5.17.68.68,0,0,1-.89.28c-1.22-.46-2.44-.91-3.67-1.33a14.26,14.26,0,0,0-2.21-.63,1.62,1.62,0,0,0-2.1,1.55c-.19,1.63-.29,1.35,1,1.9,2,.88,4.11,1.68,6.19,2.4A3.9,3.9,0,0,0,32,21.24a23.13,23.13,0,0,1,1.74-1.69A9.91,9.91,0,0,1,35,18.79Z"/><path class="cls-1" d="M56.9,13.84H50.17a8.77,8.77,0,0,0-1,.06,2,2,0,0,0-2,2.14Q47,17.81,47,19.58q0,3.54.09,7.06c0,.68.16,1.34.22,2a.76.76,0,0,0,.73.79h0c.91.13,1.81.34,2.72.38,2,.12,4,.22,5.92.21a63.47,63.47,0,0,0,8.39-.42c1.25-.17,1.32-.15,1.39-1.37.14-2.37.22-4.75.27-7.12,0-1.51,0-3,0-4.54a7.54,7.54,0,0,0-.06-.83,1.83,1.83,0,0,0-2-1.84c-.86-.05-1.71-.05-2.58-.05C60.36,13.84,58.63,13.84,56.9,13.84Z"/><path class="cls-1" d="M23.26,46.63c0,4.93-3.72,8.86-8.28,8.82a8.65,8.65,0,0,1-8.7-8.56,8.43,8.43,0,0,1,8.29-8.46C18.67,38.47,23.26,41.18,23.26,46.63Zm-4.05,2.79a5.38,5.38,0,0,0-.54-5.82,4.73,4.73,0,0,0-5.17-1.44A4.76,4.76,0,0,0,9.8,46c-.44,2.59,1.34,5.74,5.32,5.76a4.83,4.83,0,0,0,4.07-2.35Z"/><path class="cls-1" d="M53.25,38.38A8.25,8.25,0,0,1,62,46.53c.08,4.43-3,8.75-7.95,8.9a8.6,8.6,0,0,1-9-8.19V47C44.84,42,49.27,38.53,53.25,38.38ZM53.1,41.9c-2.67,0-4.66,2.38-4.59,5.29a4.84,4.84,0,0,0,5.26,4.69,5,5,0,0,0,4.75-5.12v0C58.45,43.44,55.61,41.87,53.1,41.9Z"/><path class="cls-1" d="M39.93,4.55C40,1.71,37.05,0,35.16,0a4.64,4.64,0,0,0-4.37,4.64A4.61,4.61,0,0,0,35.41,9.2,4.7,4.7,0,0,0,39.93,4.55Z"/><path class="cls-2" d="M1.78,70.34v5.6H8.33v1.57H1.78v5.85H9.72V85H0V68.75H9.72v1.59Z"/><path class="cls-2" d="M14.93,79.1l-3.62-5.85H13.2L16,77.83l2.82-4.58h1.89l-3.67,5.8L20.7,85H18.81L16,80.38,13.2,85H11.31Z"/><path class="cls-2" d="M22.89,73.25H24.6v.84a8.17,8.17,0,0,1,1.75-.81A6,6,0,0,1,28.13,73a3.5,3.5,0,0,1,3.13,1.44,8.27,8.27,0,0,1,1,4.58,10.59,10.59,0,0,1-.5,3.57,3.61,3.61,0,0,1-1.62,2,6,6,0,0,1-3,.62,12.42,12.42,0,0,1-2.51-.25v5.23H22.9Zm6.84,9.33a6.21,6.21,0,0,0,.76-3.48,6.78,6.78,0,0,0-.66-3.46,2.2,2.2,0,0,0-2-1.06,5.4,5.4,0,0,0-1.44.22,10.55,10.55,0,0,0-1.33.48l-.43.24V83.4a19.53,19.53,0,0,0,2.53.25A2.89,2.89,0,0,0,29.73,82.58Z"/><path class="cls-2" d="M35.06,73.25h1.71v1.59A11.32,11.32,0,0,1,41,73v1.78a13.56,13.56,0,0,0-2,.57,14.43,14.43,0,0,0-1.67.71l-.58.31V85H35.06Z"/><path class="cls-2" d="M43.4,83.79a7.1,7.1,0,0,1-1.1-4.39,8.07,8.07,0,0,1,1.18-4.82A4.37,4.37,0,0,1,47.17,73a4.26,4.26,0,0,1,3.45,1.35,6.23,6.23,0,0,1,1.15,4.13l-.1,1.33h-7.6a6.51,6.51,0,0,0,.31,2.27,2.07,2.07,0,0,0,1.06,1.19,4.94,4.94,0,0,0,2.09.36c.45,0,1,0,1.54,0s1.12,0,1.6-.1l.67-.07,0,1.38a30.09,30.09,0,0,1-4.24.38A4.49,4.49,0,0,1,43.4,83.79ZM50,78.42a5.26,5.26,0,0,0-.67-3,2.57,2.57,0,0,0-2.2-.9,2.81,2.81,0,0,0-2.35,1,4.77,4.77,0,0,0-.78,3Z"/><path class="cls-2" d="M54.7,84.85,54,84.74l.09-1.53a29.62,29.62,0,0,0,4,.4,3.77,3.77,0,0,0,2.06-.45,1.66,1.66,0,0,0,.68-1.47,1.62,1.62,0,0,0-.33-1.1,1.84,1.84,0,0,0-.86-.53,10.24,10.24,0,0,0-1.46-.31l-.58-.09a10.81,10.81,0,0,1-2.17-.56,2.6,2.6,0,0,1-1.17-.93,2.92,2.92,0,0,1-.4-1.65A3.05,3.05,0,0,1,55,73.83a5.43,5.43,0,0,1,3.2-.79,18.8,18.8,0,0,1,3.35.3l.65.12,0,1.49a28.28,28.28,0,0,0-3.9-.37,3.79,3.79,0,0,0-2,.42,1.45,1.45,0,0,0-.66,1.31,1.37,1.37,0,0,0,.33,1,1.75,1.75,0,0,0,.84.49,12,12,0,0,0,1.47.32l.58.11a10.63,10.63,0,0,1,2.21.6,2.47,2.47,0,0,1,1.17,1,3.42,3.42,0,0,1,.38,1.75,3.31,3.31,0,0,1-1.1,2.77,5.42,5.42,0,0,1-3.36.89A21.5,21.5,0,0,1,54.7,84.85Z"/><path class="cls-2" d="M65.43,84.85l-.69-.11.09-1.53a29.62,29.62,0,0,0,4,.4,3.83,3.83,0,0,0,2.07-.45,1.66,1.66,0,0,0,.68-1.47,1.63,1.63,0,0,0-.34-1.1,1.81,1.81,0,0,0-.85-.53,10.37,10.37,0,0,0-1.47-.31l-.58-.09a11,11,0,0,1-2.17-.56A2.6,2.6,0,0,1,65,78.17a3,3,0,0,1-.39-1.65,3,3,0,0,1,1.13-2.69,5.43,5.43,0,0,1,3.2-.79,18.72,18.72,0,0,1,3.35.3l.65.12,0,1.49a28.28,28.28,0,0,0-3.9-.37A3.79,3.79,0,0,0,67,75a1.42,1.42,0,0,0-.65,1.31,1.32,1.32,0,0,0,.32,1,1.75,1.75,0,0,0,.84.49,12,12,0,0,0,1.47.32l.58.11a10.72,10.72,0,0,1,2.22.6,2.4,2.4,0,0,1,1.16,1,4.07,4.07,0,0,1-.71,4.52,5.42,5.42,0,0,1-3.36.89A21.51,21.51,0,0,1,65.43,84.85Z"/></g></g></g></svg>