<svg xmlns="http://www.w3.org/2000/svg" width="200" height="200" viewBox="0 0 200 200"><g transform="translate(1618 328)"><rect width="200" height="200" transform="translate(-1618 -328)" fill="none"/><g transform="translate(-1586 -259.985)"><g transform="translate(0 -0.015)"><path d="M41.857.309a6.461,6.461,0,0,0-3.733,6.307V58.1a5.689,5.689,0,0,0,3.527,5.972v.283H23.631v-.232q3.321-1.158,3.321-5.946V30.891h-.335L19.873,63.48h-1.21L13,31.071h-.309v26.18a7.568,7.568,0,0,0,1.39,4.531,6.281,6.281,0,0,0,2.96,2.368v.206H0V64.1a6.693,6.693,0,0,0,4.325-6.873V6.641C4.325,3.063,3.166.9.824.18V0H17.582V.18c-1,.36-1.39,1.339-1.107,2.986L20.594,27.75,25.742,3.578q.515-2.265-.618-3.089V0H42.037Z" transform="translate(0 0.038)" fill="#b12925"/><path d="M42.737,51.6H34.654c-2.368,0-3.655-1.673-3.887-5.148h0c-1.158,3.372-2.78,5.148-4.84,5.148H21.319q-5.148,0-5.148-4.788V36.15a21.958,21.958,0,0,1,.257-4.35,3.681,3.681,0,0,1,1.313-1.9L29.222,20.7a2.909,2.909,0,0,0,1.261-2.059V17.41c0-.747-.438-1.133-1.261-1.133H25.438a10.065,10.065,0,0,0-7.723,3.4,8.418,8.418,0,0,1,1-3.6l2.188-4.4a5.638,5.638,0,0,1,5.3-3.552h8.958a5.329,5.329,0,0,1,4.273,1.725,6.719,6.719,0,0,1,1.493,4.479V45.211A9.241,9.241,0,0,0,42.737,51.6ZM30.484,42.843V30.049l-2.574,1.982a4.273,4.273,0,0,0-1.364,3.655v5.457c0,1.081.541,1.622,1.673,1.622Z" transform="translate(25.429 12.799)" fill="#b12925"/><path d="M49.694,5.893V9.857l-8.546,7.208V9.7c0-1.57-.618-2.368-1.879-2.368s-1.776.927-1.776,2.729V21.312h7.723l-3.4,8.109H37.493V61.47a2.162,2.162,0,0,0,2.085,2.368v.541H27.17V5.893C27.17,1.98,29,.023,32.6.023H44.289a5.406,5.406,0,0,1,4.247,1.339A7,7,0,0,1,49.694,5.893Z" transform="translate(42.772 0.015)" fill="#b12925"/><path d="M50.489,61.585H38.132V30.128c0-1.982-.721-3.012-2.162-3.063v-.412l12.459-9.782V58.677a2.162,2.162,0,0,0,2.059,2.368ZM50.18,8.634a6.719,6.719,0,0,1-1.9,4.84,6.049,6.049,0,0,1-4.5,2.008,6.127,6.127,0,0,1-4.634-2.008,6.822,6.822,0,0,1-1.9-4.84,6.847,6.847,0,0,1,1.9-4.865A6.127,6.127,0,0,1,43.77,1.76a6.049,6.049,0,0,1,4.582,2.008A6.744,6.744,0,0,1,50.18,8.634Z" transform="translate(56.625 2.809)" fill="#b12925"/><path d="M68.761,51.6H60.7c-2.368,0-3.681-1.673-3.887-5.148h-.129c-1.158,3.372-2.78,5.148-4.84,5.148H47.369c-3.424,0-5.148-1.6-5.148-4.788V36.15a21.959,21.959,0,0,1,.257-4.35,3.681,3.681,0,0,1,1.313-1.9L55.246,20.7a2.806,2.806,0,0,0,1.261-2.059V17.41c0-.747-.412-1.133-1.261-1.133H51.462a10.065,10.065,0,0,0-7.723,3.4,8.417,8.417,0,0,1,1-3.6l2.085-4.4a5.663,5.663,0,0,1,5.3-3.552H61.09a5.329,5.329,0,0,1,4.273,1.725,6.59,6.59,0,0,1,1.493,4.479V45.211A9.37,9.37,0,0,0,68.761,51.6ZM56.508,42.843V30.049l-2.574,1.982a4.35,4.35,0,0,0-1.364,3.655v5.457a1.467,1.467,0,0,0,1.673,1.622Z" transform="translate(66.437 12.799)" fill="#b12925"/></g></g></g></svg>