<svg xmlns="http://www.w3.org/2000/svg" viewBox="0 0 52.52 24.97"><defs><style>.cls-1{fill:#b12925;}</style></defs><title>Asset 7</title><g id="Layer_2" data-name="Layer 2"><g id="Layer_1-2" data-name="Layer 1"><g id="_6" data-name="6"><path class="cls-1" d="M16.26.12a2.51,2.51,0,0,0-1.45,2.45v20a2.21,2.21,0,0,0,1.37,2.32V25h-7v-.09q1.29-.45,1.29-2.31V12h-.13L7.72,24.66H7.25L5.05,12.07H4.93V22.24A2.94,2.94,0,0,0,5.47,24a2.44,2.44,0,0,0,1.15.92V25H0V24.9a2.6,2.6,0,0,0,1.68-2.67V2.58C1.68,1.19,1.23.35.32.07V0H6.83V.07c-.39.14-.54.52-.43,1.16L8,10.78,10,1.39q.2-.88-.24-1.2l0-.19h6.57Z"/><path class="cls-1" d="M26.48,25H23.34c-.92,0-1.42-.65-1.51-2h0c-.45,1.31-1.08,2-1.88,2H18.16q-2,0-2-1.86V19a8.53,8.53,0,0,1,.1-1.69,1.43,1.43,0,0,1,.51-.74L21.23,13a1.13,1.13,0,0,0,.49-.8v-.48c0-.29-.17-.44-.49-.44H19.76a3.91,3.91,0,0,0-3,1.32,3.27,3.27,0,0,1,.39-1.4L18,9.49a2.19,2.19,0,0,1,2.06-1.38h3.48a2.07,2.07,0,0,1,1.66.67,2.61,2.61,0,0,1,.58,1.74v12A3.59,3.59,0,0,0,26.48,25Zm-4.76-3.4V16.63l-1,.77a1.66,1.66,0,0,0-.53,1.42v2.12c0,.42.21.63.65.63Z"/><path class="cls-1" d="M35.92,2.28V3.82L32.6,6.62V3.76c0-.61-.24-.92-.73-.92s-.69.36-.69,1.06V8.27h3l-1.32,3.15H31.18V23.87a.84.84,0,0,0,.81.92V25H27.17V2.28C27.17.76,27.88,0,29.28,0h4.54a2.1,2.1,0,0,1,1.65.52A2.72,2.72,0,0,1,35.92,2.28Z"/><path class="cls-1" d="M41.61,25h-4.8V12.78c0-.77-.28-1.17-.84-1.19v-.16l4.84-3.8V23.87a.84.84,0,0,0,.8.92ZM41.49,4.43a2.61,2.61,0,0,1-.74,1.88A2.35,2.35,0,0,1,39,7.09a2.38,2.38,0,0,1-1.8-.78,2.65,2.65,0,0,1-.74-1.88,2.66,2.66,0,0,1,.74-1.89A2.38,2.38,0,0,1,39,1.76a2.35,2.35,0,0,1,1.78.78A2.62,2.62,0,0,1,41.49,4.43Z"/><path class="cls-1" d="M52.52,25H49.39c-.92,0-1.43-.65-1.51-2h-.05c-.45,1.31-1.08,2-1.88,2H44.21c-1.33,0-2-.62-2-1.86V19a8.53,8.53,0,0,1,.1-1.69,1.43,1.43,0,0,1,.51-.74L47.27,13a1.09,1.09,0,0,0,.49-.8v-.48c0-.29-.16-.44-.49-.44H45.8a3.91,3.91,0,0,0-3,1.32,3.27,3.27,0,0,1,.39-1.4L44,9.49a2.2,2.2,0,0,1,2.06-1.38h3.48a2.07,2.07,0,0,1,1.66.67,2.56,2.56,0,0,1,.58,1.74v12A3.64,3.64,0,0,0,52.52,25Zm-4.76-3.4V16.63l-1,.77a1.69,1.69,0,0,0-.53,1.42v2.12a.57.57,0,0,0,.65.63Z"/></g></g></g></svg>