<svg xmlns="http://www.w3.org/2000/svg" width="72.97" height="24.529" viewBox="0 0 72.97 24.529">
  <g id="Ofaly" transform="translate(-180.296 -38.237)">
    <path id="Vector" d="M17.608,17.725c-1.7,1.617-4.217,2.415-7.516,2.415s-5.817-.8-7.516-2.415C.859,16.108,0,13.567,0,10.06,0,6.573.859,4.011,2.577,2.415,4.295.8,6.793,0,10.092,0s5.8.8,7.516,2.415c1.7,1.617,2.557,4.158,2.557,7.644C20.165,13.567,19.306,16.108,17.608,17.725ZM14.172,5.25a4.882,4.882,0,0,0-4.08-1.617,4.949,4.949,0,0,0-4.1,1.617A7.736,7.736,0,0,0,4.724,10.06a7.736,7.736,0,0,0,1.269,4.809,4.9,4.9,0,0,0,4.1,1.617,4.882,4.882,0,0,0,4.08-1.617,7.694,7.694,0,0,0,1.269-4.809A7.736,7.736,0,0,0,14.172,5.25Z" transform="translate(180.296 38.237)" fill="#fff"/>
    <path id="Vector-2" data-name="Vector" d="M10.053,3.444,8.316,3.213c-1.659,0-2.752.231-3.24.714-.508.483-.742,1.47-.742,2.982v.21H8.863a.783.783,0,0,1,.566.231.876.876,0,0,1,.215.609v1.6a.823.823,0,0,1-.215.588.752.752,0,0,1-.566.231H4.334v8.4a.823.823,0,0,1-.215.588.739.739,0,0,1-.547.231H.761a.708.708,0,0,1-.547-.231A.859.859,0,0,1,0,18.775V6.909c0-2.5.527-4.284,1.581-5.334S4.509,0,7.164,0a17.253,17.253,0,0,1,2.87.168,1.989,1.989,0,0,1,1.035.4.792.792,0,0,1,.215.546V2.6a.915.915,0,0,1-.215.609.739.739,0,0,1-.547.231Z" transform="translate(202.784 38.342)" fill="#fff"/>
    <path id="Vector-3" data-name="Vector" d="M1.659,14.092A4.1,4.1,0,0,1,0,10.585,4.056,4.056,0,0,1,1.659,7.1,7.165,7.165,0,0,1,5.934,5.88h4.138a3.129,3.129,0,0,0-.605-2.205,2.954,2.954,0,0,0-2.147-.63,2.53,2.53,0,0,0-2.147.819,1.843,1.843,0,0,1-1.523.819H1.776a.783.783,0,0,1-.566-.231A.859.859,0,0,1,1,3.864C1,1.281,3.28,0,7.828,0a7.532,7.532,0,0,1,4.783,1.428,5.308,5.308,0,0,1,1.8,4.431V14.2a.823.823,0,0,1-.215.588.739.739,0,0,1-.547.231H11.225a.708.708,0,0,1-.547-.231.859.859,0,0,1-.215-.588v-.42A7.35,7.35,0,0,1,5.9,15.289,6.668,6.668,0,0,1,1.659,14.092Zm3.2-4.683a1.62,1.62,0,0,0,.02,2.373,2.132,2.132,0,0,0,1.484.462,6.532,6.532,0,0,0,3.729-1.218v-2.1H6.247A2.28,2.28,0,0,0,4.861,9.409Z" transform="translate(213.931 42.899)" fill="#fff"/>
    <path id="Vector-4" data-name="Vector" d="M0,18.5V.84A.915.915,0,0,1,.215.231.739.739,0,0,1,.761,0H3.572a.772.772,0,0,1,.547.231A.876.876,0,0,1,4.334.84V18.5a.9.9,0,0,1-.215.588.739.739,0,0,1-.547.231H.761a.772.772,0,0,1-.547-.231A.859.859,0,0,1,0,18.5Z" transform="translate(231.422 38.636)" fill="#fff"/>
    <path id="Vector-5" data-name="Vector" d="M3.826,16.171l1.64.231c1.171,0,1.991-.924,2.46-2.793a4.893,4.893,0,0,1-3.553-1.386,11.284,11.284,0,0,1-2.46-4.914L.039.8A.837.837,0,0,1,0,.546.581.581,0,0,1,.156.21.567.567,0,0,1,.625,0H3.24a1.1,1.1,0,0,1,.7.273,1.181,1.181,0,0,1,.429.651l1.64,5.712A9.17,9.17,0,0,0,7.262,9.556a1.838,1.838,0,0,0,1.5.8l2.5-9.43a1.228,1.228,0,0,1,.39-.651A1,1,0,0,1,12.318,0h2.635a.515.515,0,0,1,.469.21.774.774,0,0,1,.156.357.845.845,0,0,1-.02.231l-3.28,12.58a11.621,11.621,0,0,1-2.167,4.767,4.311,4.311,0,0,1-3.338,1.428,17.7,17.7,0,0,1-2.889-.168,1.924,1.924,0,0,1-1.054-.4.792.792,0,0,1-.215-.546V16.969a.915.915,0,0,1,.215-.609.739.739,0,0,1,.547-.231h.449Z" transform="translate(237.688 43.193)" fill="#fff"/>
  </g>
</svg>
