<svg xmlns="http://www.w3.org/2000/svg" viewBox="0 0 90.2 92.64"><defs><style>.cls-1{fill:#222;}.cls-2{fill:#b22b26;}</style></defs><title>Asset 2</title><g id="Layer_2" data-name="Layer 2"><g id="Layer_1-2" data-name="Layer 1"><g id="_1" data-name="1"><path class="cls-1" d="M1,87.25l-.83-.11.18-1.5a40.07,40.07,0,0,0,4.78.43q3.42,0,3.42-3.26a2.84,2.84,0,0,0-.31-1.4,2.22,2.22,0,0,0-1.07-.84A10.23,10.23,0,0,0,5,80,13.41,13.41,0,0,1,2,79.05,3.51,3.51,0,0,1,.48,77.66,4.8,4.8,0,0,1,0,75.34Q0,71,5.15,71a34,34,0,0,1,4.82.47L9.81,73a45,45,0,0,0-4.55-.4q-3.46,0-3.46,2.65a2.9,2.9,0,0,0,.33,1.53,2.44,2.44,0,0,0,1.15.85,17.4,17.4,0,0,0,2.56.73,11,11,0,0,1,2.64.89,3.11,3.11,0,0,1,1.37,1.29,4.44,4.44,0,0,1,.44,2.15q0,5-5.1,5A28.58,28.58,0,0,1,1,87.25Z"/><path class="cls-1" d="M14.39,87.13a3,3,0,0,1-1.12-1.8A14.75,14.75,0,0,1,13,81.85V75.74h1.73v6.08a14.64,14.64,0,0,0,.18,2.65,2.08,2.08,0,0,0,.67,1.26,2.47,2.47,0,0,0,1.5.38,7.07,7.07,0,0,0,3.24-.87v-9.5H22v11.7H20.27v-.82a8.25,8.25,0,0,1-1.76.81,6.4,6.4,0,0,1-1.85.24A4,4,0,0,1,14.39,87.13Z"/><path class="cls-1" d="M25.32,75.74H27v.84a8.57,8.57,0,0,1,1.74-.8,5.72,5.72,0,0,1,1.79-.28,3.53,3.53,0,0,1,3.13,1.44,8.32,8.32,0,0,1,1,4.57,10.23,10.23,0,0,1-.51,3.57,3.62,3.62,0,0,1-1.62,2,6.13,6.13,0,0,1-3,.62,11.85,11.85,0,0,1-2.52-.26v5.22H25.32Zm6.83,9.34a6.16,6.16,0,0,0,.76-3.49,6.71,6.71,0,0,0-.66-3.45,2.18,2.18,0,0,0-2-1.07,5.35,5.35,0,0,0-1.44.23,7.82,7.82,0,0,0-1.33.48l-.44.23v7.88a18.07,18.07,0,0,0,2.54.26,2.93,2.93,0,0,0,2.56-1.07Z"/><path class="cls-1" d="M38.07,86.28A7,7,0,0,1,37,81.9a8.11,8.11,0,0,1,1.17-4.83,4.33,4.33,0,0,1,3.69-1.57,4.26,4.26,0,0,1,3.45,1.35A6.21,6.21,0,0,1,46.44,81l-.1,1.33H38.72A6.76,6.76,0,0,0,39,84.58a2.07,2.07,0,0,0,1.07,1.18,4.62,4.62,0,0,0,2.09.36l1.54,0c.59,0,1.12-.06,1.59-.11l.67-.06,0,1.38a30.22,30.22,0,0,1-4.25.37A4.46,4.46,0,0,1,38.07,86.28Zm6.64-5.37a5.3,5.3,0,0,0-.67-3,2.57,2.57,0,0,0-2.2-.9,2.84,2.84,0,0,0-2.35,1,4.79,4.79,0,0,0-.78,3Z"/><path class="cls-1" d="M49.14,75.74h1.7v1.59a11.7,11.7,0,0,1,4.23-1.85v1.78a15,15,0,0,0-2,.57,16.47,16.47,0,0,0-1.67.72l-.58.3v8.59H49.14Z"/><path class="cls-1" d="M57.21,86.76a3.78,3.78,0,0,1-.83-2.62,3.34,3.34,0,0,1,.85-2.51,4.4,4.4,0,0,1,2.69-1l3.62-.35v-1q0-2.22-1.89-2.22a43.07,43.07,0,0,0-4.54.3L57,76a22,22,0,0,1,4.5-.52,3.87,3.87,0,0,1,2.85.9,4,4,0,0,1,.89,2.87v6c0,.58.49.92,1.34,1l-.07,1.38a3.72,3.72,0,0,1-2.75-.93,9.78,9.78,0,0,1-4.15.93A3.14,3.14,0,0,1,57.21,86.76Zm5.8-1.1.53-.19V81.61l-3.42.33a2.17,2.17,0,0,0-1.5.61A2.14,2.14,0,0,0,58.16,84c0,1.44.59,2.16,1.76,2.16A9.35,9.35,0,0,0,63,85.66Z"/><path class="cls-1" d="M68.69,75.74h1.7v.84a8.65,8.65,0,0,1,1.75-.8,5.38,5.38,0,0,1,1.78-.27A3.51,3.51,0,0,1,77.05,77a8.23,8.23,0,0,1,1,4.57,10.31,10.31,0,0,1-.51,3.57,3.55,3.55,0,0,1-1.61,2,6,6,0,0,1-3,.62,11.75,11.75,0,0,1-2.51-.25v5.22H68.68Zm6.83,9.34a6.16,6.16,0,0,0,.76-3.49,6.71,6.71,0,0,0-.66-3.45,2.19,2.19,0,0,0-2-1.07,5.48,5.48,0,0,0-1.44.23,7.71,7.71,0,0,0-1.32.48l-.44.23v7.88a17.78,17.78,0,0,0,2.53.26,3,3,0,0,0,2.57-1.07Z"/><path class="cls-1" d="M80.85,75.74h1.71v.84a8.32,8.32,0,0,1,1.74-.8,5.44,5.44,0,0,1,1.79-.27A3.5,3.5,0,0,1,89.21,77a8.31,8.31,0,0,1,1,4.57,10.31,10.31,0,0,1-.51,3.57,3.57,3.57,0,0,1-1.62,2,6,6,0,0,1-3,.62,11.81,11.81,0,0,1-2.51-.25v5.22H80.85Zm6.83,9.34a6.16,6.16,0,0,0,.76-3.49,6.71,6.71,0,0,0-.66-3.45,2.19,2.19,0,0,0-2-1.07,5.49,5.49,0,0,0-1.45.23,8,8,0,0,0-1.32.48l-.44.23v7.88a18.07,18.07,0,0,0,2.54.26,2.93,2.93,0,0,0,2.56-1.07Z"/><g id="Layer_1-2-2" data-name="Layer 1-2"><path class="cls-2" d="M68.58,30.61c2.45-.75,4.08-3.34,4.08-6.3a7,7,0,0,0-1.49-4.45V14.15A1.4,1.4,0,1,0,69,13a1.24,1.24,0,0,0,.67,1.18v4.38A5.44,5.44,0,0,0,68.5,18a24.15,24.15,0,0,0-46.67-.15c-2.51.67-4.29,3.33-4.29,6.37s1.86,5.7,4.29,6.37A24,24,0,0,0,31.91,44.45v1.63a21.06,21.06,0,0,0-2.37.75c-.23-.15-.38-.3-.59-.45A2.31,2.31,0,0,0,27.76,46a2.12,2.12,0,0,0-1.87,1,2.3,2.3,0,0,0-.29,1.7.64.64,0,0,0,.22.52,13.94,13.94,0,0,0-4.67,10.45.75.75,0,0,0,.75.74H68.74a.75.75,0,0,0,.74-.75,14.2,14.2,0,0,0-4.66-10.45,4.77,4.77,0,0,0,.22-.52,2.31,2.31,0,0,0-.29-1.7,2.12,2.12,0,0,0-1.87-1,2.25,2.25,0,0,0-1.18.37c-.23.15-.38.3-.6.45A21.38,21.38,0,0,0,58.73,46V44.37A24.12,24.12,0,0,0,68.58,30.61ZM69,19.79a5.3,5.3,0,0,1,2.24,4.44A5.16,5.16,0,0,1,69,28.68a22.25,22.25,0,0,0,.45-4.45A28.68,28.68,0,0,0,69,19.79ZM21.4,28.9A5.23,5.23,0,0,1,19,24.23a5.22,5.22,0,0,1,2.45-4.66A23.44,23.44,0,0,0,21,24.23a31.68,31.68,0,0,0,.44,4.66ZM40,2.15V5.93a.75.75,0,1,0,1.49,0v-4a18.45,18.45,0,0,1,3-.3V6.84a.75.75,0,0,0,1.5,0V1.56a18.45,18.45,0,0,1,3,.3V5.93a.74.74,0,0,0,.74.75.78.78,0,0,0,.75-.75V2.15A22.8,22.8,0,0,1,68,23.56H64.39c-.29-3.26-1.26-6.44-3.92-8.21-3.41-2.29-8.52-3.48-15.19-3.48S33.5,13.06,30.09,15.35c-2.58,1.78-3.55,5-3.92,8.21H22.54A22.72,22.72,0,0,1,40,2.15Zm22.66,28.3c-.14.59-.29,1.26-.44,1.87v.07a24.73,24.73,0,0,1-1.34,3.19c-4.81,8.73-16.74,12.14-25.18,6.51a.07.07,0,0,1-.07-.07l-.82-.59a1.52,1.52,0,0,1-.37-.3,2.14,2.14,0,0,0-.52-.37,17.25,17.25,0,0,1-4.44-5.63,22.14,22.14,0,0,1-1.41-3.71v-.07c-1.12-3.4-.75-6.59.07-10a8.3,8.3,0,0,1,1.19-3.18c1.18-1.78,3.4-2.74,5.33-3.41a29.27,29.27,0,0,1,6.74-1.33h1.87c.74-.06,1.49-.09,2.24-.08a39.6,39.6,0,0,1,5.33.3h.3a23.13,23.13,0,0,1,5.11,1.19.21.21,0,0,1,.14.07,13.54,13.54,0,0,1,3.48,1.7,3,3,0,0,1,.75.67A6,6,0,0,1,62.26,20V20c.07.15.07.22.15.37s.14.52.22.75.07.3.07.44a22.18,22.18,0,0,1,0,8.89ZM22.58,59a12.53,12.53,0,0,1,4.23-8.58,14.19,14.19,0,0,1,3.4,4A10.65,10.65,0,0,0,28.58,59Zm7.56,0A7.53,7.53,0,0,1,31,55.85,14.45,14.45,0,0,1,32.15,59Zm3.56,0c-.67-3.55-3.56-8.21-6.37-10.07a.74.74,0,0,1-.23-1h0a.78.78,0,0,1,.6-.37c.14,0,.29,0,.37.15,3.19,2.07,6.37,7.33,7,11.26H33.7Zm24.52,0a13.93,13.93,0,0,1,1.12-3.11A7.69,7.69,0,0,1,60.23,59Zm9.62,0H61.77a10,10,0,0,0-1.55-4.59,14.19,14.19,0,0,1,3.4-4A12.16,12.16,0,0,1,67.84,59ZM62.29,47.71c.15-.08.22-.15.37-.15a.65.65,0,0,1,.59.37A.74.74,0,0,1,63,49h0C60.22,50.83,57.4,55.49,56.66,59H55.17C55.92,55,59,49.71,62.29,47.71Zm-2.67.22a21.79,21.79,0,0,0-5.85,11h-17a22.32,22.32,0,0,0-5.85-11c.38-.14.75-.22,1.12-.37.52,2.89,6.89,4.44,13.26,4.44S58,50.43,58.52,47.48a2.94,2.94,0,0,0,1.1.45ZM33.4,47.26V45.4a24.57,24.57,0,0,0,11.85,3.11A24,24,0,0,0,57.1,45.4v1.86c0,1.33-4.59,3.33-11.85,3.33s-11.85-2-11.85-3.32ZM45.18,47A22.79,22.79,0,0,1,22.44,25h3.48c0,.67-.07,1.41-.07,2.07A19.31,19.31,0,0,0,45.1,46.28h0A19.31,19.31,0,0,0,64.36,27,20.45,20.45,0,0,0,64.29,25h3.48A22.52,22.52,0,0,1,45.18,47Z"/><path class="cls-2" d="M49.1,54.89H47.61a2.47,2.47,0,0,0-4.74,0H41.38a.76.76,0,0,0-.75.75.75.75,0,0,0,.75.74h1.49a2.47,2.47,0,0,0,4.74,0H49.1a.74.74,0,0,0,.75-.74A.75.75,0,0,0,49.1,54.89Zm-3.92,1.78a1,1,0,1,1,1-1A1.06,1.06,0,0,1,45.18,56.67Z"/><path class="cls-2" d="M50.36,30.74a4.15,4.15,0,0,1-.74,1.56,2.13,2.13,0,0,1-2.08.52A2.9,2.9,0,0,1,45.84,31c.74-.37,1.4-1.12,1.18-1.86a.66.66,0,0,0-.67-.52c-.66-.07-.81.59-1.25.89s-.75-.3-1.12-.44a.47.47,0,0,0-.58.34s0,.07,0,.1a1.87,1.87,0,0,0,1,1.49,2.94,2.94,0,0,1-1.56,1.7c-1,.38-2.89.08-2.89-1.33a.46.46,0,0,0-.88-.15c-.82,2.15,1.25,3.63,3.25,3.12a4.61,4.61,0,0,0,2.75-2,5.45,5.45,0,0,0,3,1.92c1.93.22,4.37-1.56,3.41-3.63C51.18,30.38,50.51,30.38,50.36,30.74Z"/><path class="cls-2" d="M36.58,22.6a1.14,1.14,0,0,0-.81.29,1.42,1.42,0,0,0,.09,2,1.92,1.92,0,0,0,.35.23,1.53,1.53,0,0,0,2-.68,1.35,1.35,0,0,0-.34-1.62A1.71,1.71,0,0,0,36.58,22.6Z"/><path class="cls-2" d="M54.07,24.15a.53.53,0,0,0-.45.23A1.15,1.15,0,0,0,52.5,25a1.61,1.61,0,0,0,.08,1.63,1.7,1.7,0,0,0,1.55.52,1.53,1.53,0,0,0,1.2-1.8,1.49,1.49,0,0,0-.45-.81A1,1,0,0,0,54.07,24.15Z"/><path class="cls-2" d="M35.25,35.64a16,16,0,0,0-3.85,2.44,26.25,26.25,0,0,1-1.7-2.37c1.4-.45,2.81-.67,4.22-1a.33.33,0,1,0-.08-.66h0a18.35,18.35,0,0,0-5,.29h0a3.71,3.71,0,0,1-1.33.67V35a13.9,13.9,0,0,0,1.12,2.08,13.07,13.07,0,0,0,1.7,2.29,26.27,26.27,0,0,0-2.67,4.08c-.29.59.38,1.12.82.59,1-1.12,1.87-2.44,2.89-3.48.07,0,.07.07.14.07A4,4,0,0,1,32.74,39a34.26,34.26,0,0,1,3-2.82C36,36,35.7,35.49,35.25,35.64Z"/><path class="cls-2" d="M65.7,39.34a13.2,13.2,0,0,0-3.26-3.11.3.3,0,0,1-.08-.22h-.29A5.21,5.21,0,0,1,61,35.86h0a25.49,25.49,0,0,0-6.75-.52c-.51.07-.51.67-.07.74,2,.38,4.08.52,6.08.89-.75.82-1.49,1.56-2.3,2.3a13.08,13.08,0,0,0-4.37-2.59c-.44-.15-.82.29-.44.66,1,1,2.29,1.71,3.4,2.61a3.61,3.61,0,0,1,1.78,1.71l.22.22c1.56,1.7,2.82,3.55,4.23,5.26a.43.43,0,0,0,.59.15.42.42,0,0,0,.15-.59A31.69,31.69,0,0,0,59,40.6c.81-1.12,1.86-2.15,2.74-3.26a21,21,0,0,1,3.33,2.37.35.35,0,0,0,.64-.29A.22.22,0,0,0,65.7,39.34Z"/><path class="cls-2" d="M62.22,10.46c-1.56-.89-3.56.07-5.12.52a15.93,15.93,0,0,0-3.85,1.92,5,5,0,0,1,1,.82c.15.07.23.07.38.15a17,17,0,0,1,2.66-1.5,32.78,32.78,0,0,1,3.48-1.12c-1.18,1-2.37,2.08-3.48,3.19a5.58,5.58,0,0,1,1.19.29c1.12-1,2.29-2,3.4-3a20.11,20.11,0,0,1-.66,5.18A3.45,3.45,0,0,1,62,18.14a17.12,17.12,0,0,0,.67-3.48C62.88,13.49,63.77,11.34,62.22,10.46Z"/><path class="cls-2" d="M28.51,11.41c1.19,1.12,2.45,2.24,3.7,3.34a1.29,1.29,0,0,0,.3.22c.32-.16.64-.31,1-.44-1.19-1.27-2.52-2.45-3.86-3.63A15.68,15.68,0,0,1,33.1,12,14.93,14.93,0,0,1,36,13.57a2.34,2.34,0,0,1,1.12-1.12,12.75,12.75,0,0,0-3.85-1.92c-1.49-.45-3.55-1.41-5.11-.52s-.66,3-.52,4.37a19.58,19.58,0,0,0,1,4.59,2.15,2.15,0,0,1,.07-.67,2.89,2.89,0,0,1,.6-1.26V17A17.2,17.2,0,0,1,28.51,11.41Z"/><path class="cls-2" d="M22.66,39.49c-.37.52.3,1,.74.66a56.35,56.35,0,0,1,4.89-3.55c-.22-.45-.52-1-.74-1.41A18,18,0,0,0,22.66,39.49Z"/><path class="cls-2" d="M28.21,36.6a3.05,3.05,0,0,1,.38.74"/></g></g></g></g></svg>