<svg xmlns="http://www.w3.org/2000/svg" width="200" height="200" viewBox="0 0 200 200"><g transform="translate(468 346)"><rect width="200" height="200" transform="translate(-468 -346)" fill="none"/><g transform="translate(-440.995 -328)"><g transform="translate(-0.005)"><path d="M1.78,99.9.306,99.69l.32-2.665a70.345,70.345,0,0,0,8.492.746q6.076,0,6.076-5.774a5.01,5.01,0,0,0-.551-2.487,3.855,3.855,0,0,0-1.9-1.492,18.174,18.174,0,0,0-3.855-1.03A22.793,22.793,0,0,1,3.557,85.3a6.093,6.093,0,0,1-2.7-2.452A8.527,8.527,0,0,1,0,78.728Q0,71,9.153,71a59.879,59.879,0,0,1,8.563.817l-.284,2.736a79.939,79.939,0,0,0-8.083-.711q-6.147,0-6.147,4.69a5.152,5.152,0,0,0,.586,2.718,4.246,4.246,0,0,0,2.043,1.528,30.84,30.84,0,0,0,4.548,1.279,21.319,21.319,0,0,1,4.69,1.581A5.667,5.667,0,0,1,17.5,87.948a7.816,7.816,0,0,1,.782,3.8q0,8.882-9.06,8.882A53.291,53.291,0,0,1,1.78,99.9Z" transform="translate(0.005 55.13)" fill="#222"/><path d="M20.6,96.553H17.524L11.75,75.75h3.073l5.134,18.085h1.35l5.1-18.085H29.5l-8.42,30.022H17.932Z" transform="translate(9.132 58.818)" fill="#222"/><path d="M24.706,96.538l-1.226-.213.16-2.682a59.419,59.419,0,0,0,7.106.711,6.68,6.68,0,0,0,3.66-.817,3.446,3.446,0,0,0,.622-4.548,3.34,3.34,0,0,0-1.51-.959,18.421,18.421,0,0,0-2.611-.551l-1.03-.16a19.206,19.206,0,0,1-3.855-.995,4.406,4.406,0,0,1-2.078-1.652,5.33,5.33,0,0,1-.711-2.931,5.454,5.454,0,0,1,2.007-4.779,9.877,9.877,0,0,1,5.7-1.4,33.255,33.255,0,0,1,5.951.533l1.155.213-.089,2.665a50.274,50.274,0,0,0-6.928-.675,6.733,6.733,0,0,0-3.553.746,2.594,2.594,0,0,0-1.155,2.327,2.309,2.309,0,0,0,.568,1.776,3.287,3.287,0,0,0,1.492.888,25.2,25.2,0,0,0,2.611.551l1.013.213a19.044,19.044,0,0,1,3.944,1.066,4.264,4.264,0,0,1,2.061,1.776,6.058,6.058,0,0,1,.64,2.931A5.88,5.88,0,0,1,36.7,95.49a9.629,9.629,0,0,1-5.969,1.563,38,38,0,0,1-6.022-.515Z" transform="translate(18.027 58.655)" fill="#222"/><path d="M38.626,99.084a3.819,3.819,0,0,1-1.776-2.327,16.184,16.184,0,0,1-.515-4.583V81.23H33.51v-2.7h2.913V72.17h3.038v6.36h6.52v2.7h-6.52v9.931a28.422,28.422,0,0,0,.16,3.553,2.452,2.452,0,0,0,2.789,2.363l3.66-.338.2,2.576a33.109,33.109,0,0,1-4.388.462,6.537,6.537,0,0,1-3.251-.693Z" transform="translate(26.028 56.038)" fill="#222"/><path d="M44.113,94.67a12.435,12.435,0,0,1-1.954-7.781,14.212,14.212,0,0,1,2.1-8.563,7.728,7.728,0,0,1,6.537-2.807,7.568,7.568,0,0,1,6.129,2.4,11.1,11.1,0,0,1,2.061,7.355l-.178,2.38H45.285a11.707,11.707,0,0,0,.551,4.033,3.642,3.642,0,0,0,1.883,2.1,8.722,8.722,0,0,0,3.713.64h2.736a25.8,25.8,0,0,0,2.825-.2L58.2,94.1v2.469a56.229,56.229,0,0,1-7.55.657,7.923,7.923,0,0,1-6.537-2.558Zm11.8-9.522a9.451,9.451,0,0,0-1.19-5.329,4.566,4.566,0,0,0-3.926-1.652,5.045,5.045,0,0,0-4.175,1.776,8.509,8.509,0,0,0-1.386,5.329Z" transform="translate(32.711 58.622)" fill="#222"/><path d="M54.31,75.9h3v1.457a11.813,11.813,0,0,1,6.164-1.776,8.474,8.474,0,0,1,3.038.515,4.637,4.637,0,0,1,2.132,1.6,14.213,14.213,0,0,1,3.553-1.51,14.585,14.585,0,0,1,4.175-.622,6.5,6.5,0,0,1,3.89,1.013,5.543,5.543,0,0,1,1.99,3.233,23.307,23.307,0,0,1,.6,5.987v11H79.8V85.815a22.971,22.971,0,0,0-.338-4.548,3.748,3.748,0,0,0-1.208-2.292,4.139,4.139,0,0,0-2.594-.693,13.11,13.11,0,0,0-5.17,1.155l-.746.462a20.856,20.856,0,0,1,.533,6.076V96.794H67.172V86.135a25.811,25.811,0,0,0-.32-4.69,3.908,3.908,0,0,0-1.172-2.309,4,4,0,0,0-2.594-.693,12.2,12.2,0,0,0-5.01,1.155l-.764.3V96.794h-3Z" transform="translate(42.179 58.665)" fill="#222"/><path d="M74.486,96.57l-1.226-.213.16-2.7a56.12,56.12,0,0,0,7.106.711A6.591,6.591,0,0,0,84.2,93.55a2.9,2.9,0,0,0,1.244-2.594,2.807,2.807,0,0,0-.6-1.954,3.393,3.393,0,0,0-1.51-.959,16.2,16.2,0,0,0-2.611-.533l-1.013-.178a17.09,17.09,0,0,1-3.855-.995,4.441,4.441,0,0,1-2.1-1.634,5.329,5.329,0,0,1-.746-2.984,5.436,5.436,0,0,1,2.007-4.779,9.664,9.664,0,0,1,5.7-1.421,33.22,33.22,0,0,1,5.933.551l1.155.2V78.93a47.628,47.628,0,0,0-6.928-.657,6.662,6.662,0,0,0-3.553.746,2.54,2.54,0,0,0-1.172,2.327,2.434,2.434,0,0,0,.568,1.776,3.429,3.429,0,0,0,1.492.87c.87.231,1.776.426,2.611.568l1.03.2a18.6,18.6,0,0,1,3.926,1.066A4.388,4.388,0,0,1,87.863,87.6a6.147,6.147,0,0,1,.569,3,5.9,5.9,0,0,1-1.954,4.921,9.628,9.628,0,0,1-5.969,1.546,36.187,36.187,0,0,1-6.022-.5Z" transform="translate(56.68 58.623)" fill="#222"/><path d="M116.4,99.678H86.821a1.634,1.634,0,0,1,0-3.251h27.944V3.251H13.861V96.427H41.8a1.634,1.634,0,0,1,0,3.251H12.244a1.634,1.634,0,0,1-1.634-1.617V1.617A1.634,1.634,0,0,1,12.244,0H116.4a1.617,1.617,0,0,1,1.617,1.617V98.061A1.617,1.617,0,0,1,116.4,99.678Z" transform="translate(8.247 0)" fill="#b22c26"/><path d="M87.152,49.619H23.714A1.634,1.634,0,0,1,22.08,48h0V6.894A1.634,1.634,0,0,1,23.714,5.26H87.152a1.634,1.634,0,0,1,1.617,1.634V48a1.617,1.617,0,0,1-1.617,1.617ZM25.3,46.368H85.518V8.511H25.3Z" transform="translate(17.153 4.084)" fill="#b22c26"/><path d="M23.723,14.348H15.444a1.652,1.652,0,0,1-1.634-1.617V6.887A1.634,1.634,0,0,1,15.444,5.27h8.278a1.617,1.617,0,0,1,1.617,1.617v5.845a1.617,1.617,0,0,1-1.617,1.617ZM17.1,11.1h5.01V8.5H17.1Z" transform="translate(10.732 4.092)" fill="#b22c26"/><path d="M23.723,20.976H15.444a1.634,1.634,0,0,1-1.634-1.634h0V13.514a1.634,1.634,0,0,1,1.634-1.634h8.278a1.634,1.634,0,0,1,1.617,1.634v5.827a1.617,1.617,0,0,1-1.617,1.634ZM17.1,17.725h5.01V15.149H17.1Z" transform="translate(10.732 9.225)" fill="#b22c26"/><path d="M23.723,27.586H15.444a1.634,1.634,0,0,1-1.634-1.617h0V20.124a1.652,1.652,0,0,1,1.634-1.634h8.278a1.617,1.617,0,0,1,1.617,1.634h0v5.827a1.6,1.6,0,0,1-1.6,1.634ZM17.1,24.335h5.01V21.759H17.1Z" transform="translate(10.732 14.357)" fill="#b22c26"/><path d="M23.723,34.221H15.444A1.652,1.652,0,0,1,13.81,32.6v-5.9a1.634,1.634,0,0,1,1.634-1.617h8.278a1.617,1.617,0,0,1,1.617,1.617h0v5.845a1.617,1.617,0,0,1-1.617,1.67ZM17.1,30.97h5.01V28.483H17.1Z" transform="translate(10.732 19.482)" fill="#b22c26"/><path d="M71.021,14.348H62.707a1.617,1.617,0,0,1-1.617-1.617V6.887A1.617,1.617,0,0,1,62.707,5.27h8.278a1.634,1.634,0,0,1,1.634,1.617v5.845A1.634,1.634,0,0,1,71.021,14.348ZM64.483,11.1h4.974V8.5h-5.1Z" transform="translate(47.444 4.092)" fill="#b22c26"/><path d="M71.021,20.976H62.707a1.617,1.617,0,0,1-1.617-1.634V13.515a1.634,1.634,0,0,1,1.617-1.634h8.278a1.634,1.634,0,0,1,1.67,1.6v5.862a1.634,1.634,0,0,1-1.634,1.634Zm-6.537-3.251h4.974V15.149h-5.1Z" transform="translate(47.444 9.224)" fill="#b22c26"/><path d="M71.021,27.586H62.707a1.617,1.617,0,0,1-1.617-1.617V20.125a1.634,1.634,0,0,1,1.617-1.634h8.278a1.634,1.634,0,0,1,1.67,1.6v5.862a1.617,1.617,0,0,1-1.617,1.634Zm-6.537-3.251h4.974V21.759h-5.1Z" transform="translate(47.444 14.357)" fill="#b22c26"/><path d="M71.021,34.221H62.707A1.617,1.617,0,0,1,61.09,32.6v-5.9a1.617,1.617,0,0,1,1.617-1.617h8.278a1.634,1.634,0,0,1,1.634,1.617h0v5.845A1.634,1.634,0,0,1,71.021,34.221ZM64.483,30.97h4.974V28.483h-5.1Z" transform="translate(47.444 19.482)" fill="#b22c26"/><path d="M31.346,45.94H25.714a1.634,1.634,0,0,1-1.634-1.617h0V38.354a1.634,1.634,0,0,1,1.634-1.634H31.4a1.634,1.634,0,0,1,1.634,1.634h0v5.969a1.634,1.634,0,0,1-1.688,1.617Zm-4.068-3.251h2.434V39.971H27.278Z" transform="translate(18.706 28.512)" fill="#b22c26"/><path d="M59.919,45.94h-5.7A1.617,1.617,0,0,1,52.6,44.323h0V38.354a1.634,1.634,0,0,1,1.617-1.634h5.7a1.634,1.634,0,0,1,1.617,1.634v5.969a1.617,1.617,0,0,1-1.617,1.617Zm-4.086-3.251h2.452V39.971H55.833Z" transform="translate(40.851 28.512)" fill="#b22c26"/><path d="M73.9,78.894H28.884a1.652,1.652,0,0,1-1.634-1.617V38.337a1.652,1.652,0,0,1,1.634-1.617H73.9a1.617,1.617,0,0,1,1.617,1.617v38.94A1.617,1.617,0,0,1,73.9,78.894ZM30.519,75.643H72.284V39.971H30.519Z" transform="translate(21.168 28.512)" fill="#b22c26"/><path d="M58.877,72.353H38.2a1.617,1.617,0,0,1-1.617-1.634h0a4.068,4.068,0,0,0-4.068-4.05,1.634,1.634,0,0,1-1.634-1.634h0V38.387a1.634,1.634,0,0,1,1.634-1.617H64.491a1.617,1.617,0,0,1,1.617,1.617V65.034a1.634,1.634,0,0,1-1.617,1.634,4.05,4.05,0,0,0-4.068,4.05,1.634,1.634,0,0,1-1.546,1.634Zm-19.168-3.2H57.474a7.337,7.337,0,0,1,5.507-5.525v-23.7H34.2v23.68A7.319,7.319,0,0,1,39.709,69.155Z" transform="translate(23.986 28.551)" fill="#b22c26"/><path d="M46.64,48.232c-7.3,0-13.27-4.441-13.27-9.895A1.634,1.634,0,0,1,35,36.72H58.329a1.634,1.634,0,0,1,1.634,1.617C59.928,43.79,54.03,48.232,46.64,48.232Zm-9.717-8.261c1.137,2.842,5.116,5.01,9.717,5.01s8.616-2.167,9.717-5.01Z" transform="translate(25.92 28.512)" fill="#b22c26"/><path d="M42.975,56.675a4.868,4.868,0,1,1,4.85-4.868h0a4.85,4.85,0,0,1-4.85,4.868Zm0-6.449a1.6,1.6,0,1,0,1.6,1.6h0A1.6,1.6,0,0,0,42.975,50.227Z" transform="translate(29.585 36.448)" fill="#b22c26"/></g></g></g></svg>