<svg xmlns="http://www.w3.org/2000/svg" viewBox="0 0 81.68 92.65"><defs><style>.cls-1{fill:#222;}.cls-2{fill:#b22c26;}</style></defs><title>Asset 6</title><g id="Layer_2" data-name="Layer 2"><g id="Layer_1-2" data-name="Layer 1"><g id="_5" data-name="5"><path class="cls-1" d="M1,87.27l-.83-.12.18-1.5a39.6,39.6,0,0,0,4.78.42q3.42,0,3.42-3.25a2.82,2.82,0,0,0-.31-1.4,2.17,2.17,0,0,0-1.07-.84A10.23,10.23,0,0,0,5,80,12.83,12.83,0,0,1,2,79.05,3.43,3.43,0,0,1,.48,77.67,4.8,4.8,0,0,1,0,75.35Q0,71,5.15,71a33.71,33.71,0,0,1,4.82.46L9.81,73a45,45,0,0,0-4.55-.4q-3.46,0-3.46,2.64a2.9,2.9,0,0,0,.33,1.53,2.39,2.39,0,0,0,1.15.86,17.36,17.36,0,0,0,2.56.72,12,12,0,0,1,2.64.89,3.19,3.19,0,0,1,1.37,1.3,4.4,4.4,0,0,1,.44,2.14q0,5-5.1,5A30,30,0,0,1,1,87.27Z"/><path class="cls-1" d="M16.73,87.46H15L11.75,75.75h1.73l2.89,10.18h.76L20,75.75h1.74L17,92.65H15.23Z"/><path class="cls-1" d="M24.05,87.36l-.69-.12.09-1.51a33.45,33.45,0,0,0,4,.4,3.76,3.76,0,0,0,2.06-.46,1.94,1.94,0,0,0,.35-2.56,1.88,1.88,0,0,0-.85-.54,10.37,10.37,0,0,0-1.47-.31l-.58-.09a10.81,10.81,0,0,1-2.17-.56,2.48,2.48,0,0,1-1.17-.93,3,3,0,0,1-.4-1.65,3.07,3.07,0,0,1,1.13-2.69,5.56,5.56,0,0,1,3.21-.79,18.72,18.72,0,0,1,3.35.3l.65.12-.05,1.5a28.3,28.3,0,0,0-3.9-.38,3.79,3.79,0,0,0-2,.42,1.46,1.46,0,0,0-.65,1.31,1.3,1.3,0,0,0,.32,1,1.85,1.85,0,0,0,.84.5,14.19,14.19,0,0,0,1.47.31l.57.12a10.72,10.72,0,0,1,2.22.6,2.4,2.4,0,0,1,1.16,1A3.41,3.41,0,0,1,31.9,84a3.31,3.31,0,0,1-1.1,2.77,5.42,5.42,0,0,1-3.36.88A21.39,21.39,0,0,1,24.05,87.36Z"/><path class="cls-1" d="M36.39,87.32a2.15,2.15,0,0,1-1-1.31,9.11,9.11,0,0,1-.29-2.58V77.27H33.51V75.75h1.64V72.17h1.71v3.58h3.67v1.52H36.86v5.59a16,16,0,0,0,.09,2,1.38,1.38,0,0,0,1.57,1.33L40.58,86l.11,1.45a18.64,18.64,0,0,1-2.47.26A3.68,3.68,0,0,1,36.39,87.32Z"/><path class="cls-1" d="M43.24,86.29a7,7,0,0,1-1.1-4.38,8,8,0,0,1,1.18-4.82A4.35,4.35,0,0,1,47,75.51a4.26,4.26,0,0,1,3.45,1.35A6.25,6.25,0,0,1,51.61,81l-.1,1.34H43.9a6.59,6.59,0,0,0,.31,2.27,2.05,2.05,0,0,0,1.06,1.18,4.91,4.91,0,0,0,2.09.36l1.54,0c.59,0,1.12-.06,1.59-.11l.68-.07,0,1.39a31.65,31.65,0,0,1-4.25.37A4.46,4.46,0,0,1,43.24,86.29Zm6.64-5.36a5.32,5.32,0,0,0-.67-3A2.57,2.57,0,0,0,47,77a2.84,2.84,0,0,0-2.35,1,4.79,4.79,0,0,0-.78,3Z"/><path class="cls-1" d="M54.31,75.75H56v.82a6.65,6.65,0,0,1,3.47-1,4.77,4.77,0,0,1,1.71.29,2.61,2.61,0,0,1,1.2.9,8,8,0,0,1,2-.85,8.21,8.21,0,0,1,2.35-.35,3.66,3.66,0,0,1,2.19.57,3.12,3.12,0,0,1,1.12,1.82,13.12,13.12,0,0,1,.34,3.37v6.19H68.66V81.33a12.93,12.93,0,0,0-.19-2.56,2.11,2.11,0,0,0-.68-1.29,2.33,2.33,0,0,0-1.46-.39,7.38,7.38,0,0,0-2.91.65L63,78a11.74,11.74,0,0,1,.3,3.42v6.09H61.55v-6a14.53,14.53,0,0,0-.18-2.64,2.2,2.2,0,0,0-.66-1.3,2.25,2.25,0,0,0-1.46-.39,6.87,6.87,0,0,0-2.82.65L56,78v9.51H54.31Z"/><path class="cls-1" d="M73.83,87.36l-.69-.12.09-1.52a31.59,31.59,0,0,0,4,.4,3.71,3.71,0,0,0,2.07-.46A1.63,1.63,0,0,0,80,84.2a1.58,1.58,0,0,0-.34-1.1,1.91,1.91,0,0,0-.85-.54,9.12,9.12,0,0,0-1.47-.3l-.57-.1a9.62,9.62,0,0,1-2.17-.56,2.5,2.5,0,0,1-1.18-.92A3,3,0,0,1,73,79a3.06,3.06,0,0,1,1.13-2.69,5.44,5.44,0,0,1,3.21-.8,18.7,18.7,0,0,1,3.34.31l.65.11,0,1.5a26.81,26.81,0,0,0-3.9-.37,3.75,3.75,0,0,0-2,.42,1.43,1.43,0,0,0-.66,1.31,1.37,1.37,0,0,0,.32,1,1.93,1.93,0,0,0,.84.49c.49.13,1,.24,1.47.32l.58.11a10.47,10.47,0,0,1,2.21.6,2.47,2.47,0,0,1,1.17,1A3.46,3.46,0,0,1,81.68,84a3.32,3.32,0,0,1-1.1,2.77,5.42,5.42,0,0,1-3.36.87A20.37,20.37,0,0,1,73.83,87.36Z"/><path class="cls-2" d="M70.16,56.11H53.51a.92.92,0,0,1,0-1.83H69.24V1.83H12.44V54.28H28.17a.92.92,0,0,1,0,1.83H11.53a.92.92,0,0,1-.92-.91V.91A.92.92,0,0,1,11.53,0H70.16a.91.91,0,0,1,.91.91V55.2A.91.91,0,0,1,70.16,56.11Z"/><path class="cls-2" d="M58.71,30.23H23a.92.92,0,0,1-.92-.91h0V6.18A.92.92,0,0,1,23,5.26H58.71a.92.92,0,0,1,.91.92V29.32A.91.91,0,0,1,58.71,30.23ZM23.89,28.4h33.9V7.09H23.89Z"/><path class="cls-2" d="M19.39,10.38H14.73a.93.93,0,0,1-.92-.91V6.18a.92.92,0,0,1,.92-.91h4.66a.91.91,0,0,1,.91.91V9.47A.91.91,0,0,1,19.39,10.38ZM15.66,8.55h2.82V7.09H15.66Z"/><path class="cls-2" d="M19.39,17H14.73a.92.92,0,0,1-.92-.92h0V12.8a.92.92,0,0,1,.92-.92h4.66a.92.92,0,0,1,.91.92v3.28A.91.91,0,0,1,19.39,17Zm-3.73-1.83h2.82V13.72H15.66Z"/><path class="cls-2" d="M19.39,23.61H14.73a.92.92,0,0,1-.92-.91h0V19.41a.93.93,0,0,1,.92-.92h4.66a.91.91,0,0,1,.91.92h0v3.28a.9.9,0,0,1-.9.92Zm-3.73-1.83h2.82V20.33H15.66Z"/><path class="cls-2" d="M19.39,30.23H14.73a.93.93,0,0,1-.92-.91V26a.92.92,0,0,1,.92-.91h4.66a.91.91,0,0,1,.91.91h0v3.29A.91.91,0,0,1,19.39,30.23ZM15.66,28.4h2.82V27H15.66Z"/><path class="cls-2" d="M66.68,10.38H62a.91.91,0,0,1-.91-.91V6.18A.91.91,0,0,1,62,5.27h4.66a.92.92,0,0,1,.92.91V9.47A.92.92,0,0,1,66.68,10.38ZM63,8.55h2.8V7.09H62.93Z"/><path class="cls-2" d="M66.68,17H62a.91.91,0,0,1-.91-.92V12.8a.92.92,0,0,1,.91-.92h4.66a.92.92,0,0,1,.94.9v3.3a.92.92,0,0,1-.92.92ZM63,15.17h2.8V13.72H62.93Z"/><path class="cls-2" d="M66.68,23.61H62a.91.91,0,0,1-.91-.91V19.41a.92.92,0,0,1,.91-.92h4.66a.92.92,0,0,1,.94.9v3.3a.91.91,0,0,1-.91.92ZM63,21.78h2.8V20.33H62.93Z"/><path class="cls-2" d="M66.68,30.23H62a.91.91,0,0,1-.91-.91V26a.91.91,0,0,1,.91-.91h4.66a.92.92,0,0,1,.92.91h0v3.29A.92.92,0,0,1,66.68,30.23ZM63,28.4h2.8V27H62.93Z"/><path class="cls-2" d="M28.17,41.91H25a.92.92,0,0,1-.92-.91h0V37.64a.92.92,0,0,1,.92-.92h3.2a.92.92,0,0,1,.92.92h0V41A.92.92,0,0,1,28.17,41.91Zm-2.29-1.83h1.37V38.55H25.88Z"/><path class="cls-2" d="M56.72,41.91H53.51A.91.91,0,0,1,52.6,41h0V37.64a.92.92,0,0,1,.91-.92h3.21a.92.92,0,0,1,.91.92V41A.91.91,0,0,1,56.72,41.91Zm-2.3-1.83H55.8V38.55H54.42Z"/><path class="cls-2" d="M53.51,60.46H28.17a.93.93,0,0,1-.92-.91V37.63a.93.93,0,0,1,.92-.91H53.51a.91.91,0,0,1,.91.91V59.55A.91.91,0,0,1,53.51,60.46ZM29.09,58.63H52.6V38.55H29.09Z"/><path class="cls-2" d="M46.64,56.8H35a.91.91,0,0,1-.91-.92h0a2.29,2.29,0,0,0-2.29-2.28.92.92,0,0,1-.92-.92h0v-15a.92.92,0,0,1,.92-.91h18a.91.91,0,0,1,.91.91v15a.92.92,0,0,1-.91.92,2.28,2.28,0,0,0-2.29,2.28A.92.92,0,0,1,46.64,56.8ZM35.85,55h10a4.13,4.13,0,0,1,3.1-3.11V38.55H32.75V51.88A4.12,4.12,0,0,1,35.85,55Z"/><path class="cls-2" d="M40.84,43.2c-4.11,0-7.47-2.5-7.47-5.57a.92.92,0,0,1,.92-.91H47.42a.92.92,0,0,1,.92.91C48.32,40.7,45,43.2,40.84,43.2Zm-5.47-4.65c.64,1.6,2.88,2.82,5.47,2.82s4.85-1.22,5.47-2.82Z"/><path class="cls-2" d="M40.84,52.42a2.74,2.74,0,1,1,2.73-2.74h0A2.73,2.73,0,0,1,40.84,52.42Zm0-3.63a.9.9,0,1,0,.9.9h0A.9.9,0,0,0,40.84,48.79Z"/></g></g></g></svg>