<svg xmlns="http://www.w3.org/2000/svg" viewBox="0 0 47.97 87.69"><defs><style>.cls-1{fill:#222;}.cls-2{fill:#b02b27;}</style></defs><title>Asset 3</title><g id="Layer_2" data-name="Layer 2"><g id="Layer_1-2" data-name="Layer 1"><g id="_2" data-name="2"><path class="cls-1" d="M3.38,86.77a4.65,4.65,0,0,1-1.8-2.71,18.07,18.07,0,0,1-.49-4.7,18.15,18.15,0,0,1,.49-4.69A4.74,4.74,0,0,1,3.34,72,6.21,6.21,0,0,1,7,71a21.62,21.62,0,0,1,4.32.52l-.07,1.53a23.54,23.54,0,0,0-4-.43,4.67,4.67,0,0,0-2.72.66,3.46,3.46,0,0,0-1.26,2.1,20.27,20.27,0,0,0-.33,4.21,17.2,17.2,0,0,0,.31,3.73,3.34,3.34,0,0,0,1.28,2,5.07,5.07,0,0,0,2.93.69,20.3,20.3,0,0,0,3.81-.42l.07,1.55a21.22,21.22,0,0,1-4.2.49A6.55,6.55,0,0,1,3.38,86.77Z"/><path class="cls-1" d="M14.09,70.65h1.73v16.8H14.09Z"/><path class="cls-1" d="M20.61,87.14a3,3,0,0,1-1.12-1.79,14.38,14.38,0,0,1-.32-3.49V75.75H20.9v6.09a13.74,13.74,0,0,0,.18,2.64,2.05,2.05,0,0,0,.66,1.26,2.48,2.48,0,0,0,1.51.38,6.91,6.91,0,0,0,3.23-.87v-9.5h1.73V87.46H26.48v-.82a8,8,0,0,1-1.76.81,6.37,6.37,0,0,1-1.84.24A4,4,0,0,1,20.61,87.14Z"/><path class="cls-1" d="M32.18,87.5l-.65-.07V70.65h1.71v5.69a8.37,8.37,0,0,1,3.51-.83,4.2,4.2,0,0,1,2.4.6A3.4,3.4,0,0,1,40.43,78a12.31,12.31,0,0,1,.41,3.51,10.63,10.63,0,0,1-.51,3.72,3.25,3.25,0,0,1-1.7,1.86,8.14,8.14,0,0,1-3.36.55A29.06,29.06,0,0,1,32.18,87.5Zm5.52-1.84a2.36,2.36,0,0,0,1.09-1.44,9.74,9.74,0,0,0,.3-2.74,10.47,10.47,0,0,0-.26-2.61A2.35,2.35,0,0,0,38,77.51a2.68,2.68,0,0,0-1.63-.42,9.38,9.38,0,0,0-3.11.67V86c1.1.08,1.84.12,2.21.12A4.46,4.46,0,0,0,37.7,85.66Z"/><path class="cls-2" d="M43.28,30.85h-4V25.53H0V55.08a5.19,5.19,0,0,0,5,5.38H34.37a5.19,5.19,0,0,0,5-5.38V50.2h4A4.69,4.69,0,0,0,48,45.51h0v-10A4.67,4.67,0,0,0,43.28,30.85ZM9,55.76c-2.72,0-4.88-2.65-4.88-5.87V30H9Zm36.23-10.2a2,2,0,0,1-2,2h-4v-14h4a2,2,0,0,1,2,2Z"/><path class="cls-2" d="M35.73,6.49A22.1,22.1,0,0,0,20.15,0,21.76,21.76,0,0,0,4.64,6.43a1.86,1.86,0,0,0,0,2.64l0,0a1.94,1.94,0,0,0,2.72,0A18.13,18.13,0,0,1,33,9.07l.08.08a1.94,1.94,0,0,0,2.72,0A2,2,0,0,0,35.73,6.49Z"/><path class="cls-2" d="M20.15,8.47a11.31,11.31,0,0,0-8,3.36,1.93,1.93,0,1,0,2.73,2.72,7.52,7.52,0,0,1,10.65-.05l0,.05a1.8,1.8,0,0,0,1.36.55,1.87,1.87,0,0,0,1.36-.55,1.84,1.84,0,0,0,.56-1.36,1.92,1.92,0,0,0-.56-1.36A11.54,11.54,0,0,0,20.15,8.47Z"/><path class="cls-2" d="M20,17.06a2.41,2.41,0,0,0-2.41,2.42h0a2.65,2.65,0,0,0,.68,1.73,2.47,2.47,0,0,0,1.73.68h0a2.42,2.42,0,0,0,2.41-2.41,2.37,2.37,0,0,0-2.33-2.42Z"/></g></g></g></svg>