<svg xmlns="http://www.w3.org/2000/svg" viewBox="0 0 60.46 81.93"><defs><style>.cls-1{fill:#222;}.cls-2{fill:#b02c26;}</style></defs><title>Asset 4</title><g id="Layer_2" data-name="Layer 2"><g id="Layer_1-2" data-name="Layer 1"><g id="_3" data-name="3"><path class="cls-1" d="M10.92,61.31a5.26,5.26,0,0,1,1.73,2.74,15.43,15.43,0,0,1,.44,3.89q0,4.44-1.45,6.47a5.13,5.13,0,0,1-4.46,2H1.49V60.24h5.7A5.79,5.79,0,0,1,10.92,61.31Zm.34,6.79a8.88,8.88,0,0,0-1-4.77,3.44,3.44,0,0,0-3.09-1.5H3.26v13H7.19Q11.26,74.84,11.26,68.1Z"/><path class="cls-1" d="M16.07,60.05h1.71v2H16.07Zm0,4.68h1.71v11.7H16.07Z"/><path class="cls-1" d="M21.46,81.15a3,3,0,0,1-1.07-2.61,3.66,3.66,0,0,1,.17-1.23,2.41,2.41,0,0,1,.54-.86,12.73,12.73,0,0,1,1.11-1,1.26,1.26,0,0,1-.48-.63,2.43,2.43,0,0,1-.17-.89,2.1,2.1,0,0,1,.14-.66A11.82,11.82,0,0,1,22.35,72q-1.83-.82-1.83-3.51a3.92,3.92,0,0,1,1.09-3,4.71,4.71,0,0,1,3.28-1,10.37,10.37,0,0,1,2.35.3l3.42-.09V66.2l-2.19,0a2.38,2.38,0,0,1,.57,1,4.8,4.8,0,0,1,.19,1.46,3.7,3.7,0,0,1-1.06,3,5.08,5.08,0,0,1-3.35.89,5.87,5.87,0,0,1-1.18-.09c-.12.31-.22.58-.3.82a1.78,1.78,0,0,0-.11.61.76.76,0,0,0,.47.79,4.13,4.13,0,0,0,1.47.19h.9a10.6,10.6,0,0,1,2.45.23A2.47,2.47,0,0,1,30,76,3.57,3.57,0,0,1,30.48,78a3.47,3.47,0,0,1-1.25,3,7,7,0,0,1-4.11.93A6.41,6.41,0,0,1,21.46,81.15ZM28,79.93a2,2,0,0,0,.76-1.81A2.13,2.13,0,0,0,28.47,77a1.32,1.32,0,0,0-.86-.52,7.73,7.73,0,0,0-1.73-.14l-2.49-.13a3.84,3.84,0,0,0-1,1,2.18,2.18,0,0,0-.27,1.12A1.9,1.9,0,0,0,22.8,80a4.75,4.75,0,0,0,2.48.47A5,5,0,0,0,28,79.93ZM26.9,70.47a3.55,3.55,0,0,0,0-4,2.78,2.78,0,0,0-2-.59,2.86,2.86,0,0,0-2,.6,2.66,2.66,0,0,0-.61,2,2.6,2.6,0,0,0,.61,2,2.87,2.87,0,0,0,2,.59A2.82,2.82,0,0,0,26.9,70.47Z"/><path class="cls-1" d="M32.76,60.05h1.71v2H32.76Zm0,4.68h1.71v11.7H32.76Z"/><path class="cls-1" d="M39.28,76.3a2.15,2.15,0,0,1-1-1.31A9.11,9.11,0,0,1,38,72.41V66.25H36.4V64.73H38V61.15h1.71v3.58h3.67v1.52H39.75v5.6a15.91,15.91,0,0,0,.09,2,1.59,1.59,0,0,0,.45,1,1.57,1.57,0,0,0,1.12.35L43.47,75l.12,1.46a17.09,17.09,0,0,1-2.47.25A3.53,3.53,0,0,1,39.28,76.3Z"/><path class="cls-1" d="M45.64,75.75a3.73,3.73,0,0,1-.84-2.62,3.3,3.3,0,0,1,.85-2.5,4.43,4.43,0,0,1,2.69-1L52,69.28v-1Q52,66,50.07,66a40.74,40.74,0,0,0-4.55.31L45.45,65a22.75,22.75,0,0,1,4.5-.52,3.91,3.91,0,0,1,2.86.9,4,4,0,0,1,.88,2.87v6c.05.58.49.93,1.34,1L55,76.68a3.7,3.7,0,0,1-2.75-.94,9.91,9.91,0,0,1-4.15.94A3.14,3.14,0,0,1,45.64,75.75Zm5.79-1.1.53-.18V70.6l-3.42.33a1.86,1.86,0,0,0-2,2.11c0,1.43.59,2.15,1.76,2.15A9.3,9.3,0,0,0,51.43,74.65Z"/><path class="cls-1" d="M57.25,59.63H59v16.8H57.25Z"/><path class="cls-2" d="M59.12,19.6H57.28V15.9a1.21,1.21,0,0,0-1.16-1.25H49.56a1.22,1.22,0,0,0-1.24,1.21h0V19.6H46V6.27a1.24,1.24,0,0,0-1.28-1.21H43V1.34A1.35,1.35,0,0,0,41.71,0H35.17A1.35,1.35,0,0,0,33.9,1.34V5.06H26.56V1.34A1.32,1.32,0,0,0,25.29,0H18.75a1.34,1.34,0,0,0-1.29,1.34V5.06H15.72a1.23,1.23,0,0,0-1.29,1.18V19.6H12.15V15.9a1.25,1.25,0,0,0-1.21-1.24H4.38A1.31,1.31,0,0,0,3,15.92v3.69H1.33A1.31,1.31,0,0,0,0,20.86V37.11a1.37,1.37,0,0,0,1.33,1.34H59.12a1.37,1.37,0,0,0,1.34-1.34V20.85A1.32,1.32,0,0,0,59.12,19.6Zm-8.28-2.41h3.92V19.6H50.84ZM36.43,2.53h4.06V5.06H36.43ZM20,2.53h4V5.06H20ZM17,7.59H43.51v12H17ZM5.56,17.19H9.61V19.6h-4ZM28.83,35.91H2.54V22.14h26.3Zm29.08,0H31.37V22.14H57.92Z"/></g></g></g></svg>