<svg xmlns="http://www.w3.org/2000/svg" xmlns:xlink="http://www.w3.org/1999/xlink" width="10.378" height="16.804" viewBox="0 0 10.378 16.804">
  <defs>
    <clipPath id="clip-path">
      <path id="battery_mask" data-name="battery mask" d="M9.081,1.293h-1.3V0H2.595V1.293H1.3A1.223,1.223,0,0,0,0,2.585V15.511A1.223,1.223,0,0,0,1.3,16.8H9.081a1.223,1.223,0,0,0,1.3-1.293V2.585a1.223,1.223,0,0,0-1.3-1.293Z" transform="translate(348.707 6.463)"/>
    </clipPath>
  </defs>
  <g id="battery_mask-2" data-name="battery mask" transform="translate(-348.707 -6.463)" clip-path="url(#clip-path)">
    <path id="Rectangle-path" d="M0,0V7.936H10.137V0Z" transform="translate(348.797 15.15)" fill="rgba(255,255,255,0.9)"/>
    <path id="Rectangle-path-2" data-name="Rectangle-path" d="M0,0V8.657H10.137V0Z" transform="translate(348.797 6.493)" fill="rgba(255,255,255,0.9)"/>
    <path id="Rectangle-path-3" data-name="Rectangle-path" d="M0,0V3.878H10.378V0Z" transform="translate(348.707 11.633)" fill="rgba(255,255,255,0.3)"/>
  </g>
</svg>
